<svg width="300" height="60" viewBox="0 0 1519 451" fill="none" xmlns="http://www.w3.org/2000/svg">
<path d="M223.122 294.469C194.149 327.87 157.609 363.303 134.57 372.174C97.2525 386.55 63.2001 343.475 85.8499 280.003C102.474 233.393 157.324 205.121 204.904 222.799C221.14 228.834 225.675 232.292 252.821 249.763C113.022 194.761 95.8402 328.504 134.285 338.347C151.687 342.802 181.256 333.4 223.122 294.469Z" fill="url(#paint0_linear_1321_1217)"/>
<path d="M343.045 150.069C408.015 100.597 357.532 89.7958 332.006 115.141C318.374 128.674 318.724 149.447 318.258 153.397C316.34 151.921 307.529 142.92 301.219 134.761C261.18 83.0225 357.053 54.945 392.997 95.1315C411.643 115.982 370.386 146.002 343.058 150.069H343.045Z" fill="url(#paint1_linear_1321_1217)"/>
<path d="M266.672 265.809C249.154 239.842 238.075 212.218 245.098 180.864C247.936 168.224 255.075 157.824 265.377 149.277C286.096 132.078 320.368 147.762 317.544 174.052C316.688 182.017 312.723 190.422 307.553 195.356C310.961 184.542 311.363 181.978 310.119 177.484C309.678 176.24 309.108 175.036 308.434 173.896C306.309 170.322 303.886 168.366 300.802 166.424C291.473 160.544 279.487 163.225 269.005 178.3C262.915 187.054 259.377 197.35 258.444 207.97C258.418 208.268 258.392 208.579 258.367 208.877C256.099 238.327 265.701 262.817 266.659 265.821L266.672 265.809Z" fill="url(#paint2_linear_1321_1217)"/>
<path d="M402.585 188.207H368.416L284.334 374.959H320.097L338.6 331.729H432.05L450.631 374.959H486.925L402.585 188.207ZM350.249 304.519L385.248 222.786L420.363 304.519H350.249Z" fill="url(#paint3_linear_1321_1217)"/>
<path d="M627.438 313.804C628.358 313.442 629.252 313.053 630.133 312.665C641.964 307.42 651.086 299.856 657.5 289.975C663.901 280.106 667.101 268.334 667.101 254.632C667.101 240.93 663.901 229.106 657.5 219.146C651.086 209.187 641.964 201.546 630.133 196.211C618.303 190.875 604.115 188.207 587.568 188.207H510.691V374.958H545.391V320.526H587.568C590.056 320.526 592.492 320.461 594.863 320.344L632.932 374.958H670.302L627.438 313.804ZM620.532 282.114C612.783 288.693 601.264 291.982 585.961 291.982H545.391V217.554H585.961C601.264 217.554 612.783 220.752 620.532 227.15C628.267 233.561 632.142 242.717 632.142 254.632C632.142 266.547 628.267 275.535 620.532 282.114Z" fill="url(#paint4_linear_1321_1217)"/>
<path d="M705.804 374.945V188.194H740.504V374.945H705.804Z" fill="url(#paint5_linear_1321_1217)"/>
<path d="M995.418 374.958H962.584L962.338 251.226L900.919 353.615H885.448L824.055 252.845V374.958H790.948V188.207H819.507L893.65 311.952L966.588 188.207H995.146L995.418 374.958Z" fill="url(#paint6_linear_1321_1217)"/>
<path d="M1137.68 188.207H1103.51L1019.43 374.958H1055.21L1073.71 331.728H1167.16L1185.73 374.958H1222.03L1137.68 188.207ZM1085.36 304.519L1120.34 222.786L1155.46 304.519H1085.36Z" fill="url(#paint7_linear_1321_1217)"/>
<path d="M1388.33 188.207L1315.18 309.155V374.958H1280.48V309.582L1207.08 188.207H1244.19L1298.95 279.057L1354.16 188.207H1388.33Z" fill="url(#paint8_linear_1321_1217)"/>
<path d="M1408.35 374.945V188.194H1443.05V374.945H1408.35Z" fill="url(#paint9_linear_1321_1217)"/>
<path d="M770.317 131.772L768.821 138.062L768.549 136.6C769.093 136.6 769.535 136.77 769.875 137.11C770.215 137.427 770.385 137.858 770.385 138.402C770.385 138.946 770.215 139.388 769.875 139.728C769.535 140.068 769.115 140.238 768.617 140.238C768.073 140.238 767.631 140.068 767.291 139.728C766.973 139.365 766.815 138.923 766.815 138.402C766.815 138.198 766.826 138.017 766.849 137.858C766.871 137.699 766.917 137.507 766.985 137.28C767.053 137.053 767.143 136.781 767.257 136.464L768.685 131.772H770.317ZM776.097 131.772L774.601 138.062L774.329 136.6C774.873 136.6 775.315 136.77 775.655 137.11C775.995 137.427 776.165 137.858 776.165 138.402C776.165 138.946 775.995 139.388 775.655 139.728C775.315 140.068 774.895 140.238 774.397 140.238C773.853 140.238 773.411 140.068 773.071 139.728C772.753 139.365 772.595 138.923 772.595 138.402C772.595 138.198 772.606 138.017 772.629 137.858C772.651 137.699 772.697 137.507 772.765 137.28C772.833 137.053 772.923 136.781 773.037 136.464L774.465 131.772H776.097ZM781.871 157V133.2H784.387V154.824H797.715V157H781.871ZM798.36 140.068L799.856 133.812L800.128 135.24C799.607 135.24 799.165 135.081 798.802 134.764C798.462 134.424 798.292 133.982 798.292 133.438C798.292 132.894 798.462 132.452 798.802 132.112C799.165 131.772 799.595 131.602 800.094 131.602C800.615 131.602 801.035 131.783 801.352 132.146C801.692 132.486 801.862 132.917 801.862 133.438C801.862 133.619 801.851 133.801 801.828 133.982C801.805 134.163 801.76 134.367 801.692 134.594C801.647 134.798 801.567 135.059 801.454 135.376L799.992 140.068H798.36ZM813.646 157.17C811.788 157.17 810.156 156.785 808.75 156.014C807.345 155.221 806.246 154.144 805.452 152.784C804.659 151.401 804.262 149.826 804.262 148.058C804.262 146.29 804.636 144.726 805.384 143.366C806.155 142.006 807.198 140.941 808.512 140.17C809.85 139.377 811.346 138.98 813 138.98C814.678 138.98 816.162 139.365 817.454 140.136C818.769 140.884 819.8 141.949 820.548 143.332C821.296 144.692 821.67 146.267 821.67 148.058C821.67 148.171 821.659 148.296 821.636 148.432C821.636 148.545 821.636 148.67 821.636 148.806H806.098V147.004H820.344L819.392 147.718C819.392 146.426 819.109 145.281 818.542 144.284C817.998 143.264 817.25 142.471 816.298 141.904C815.346 141.337 814.247 141.054 813 141.054C811.776 141.054 810.677 141.337 809.702 141.904C808.728 142.471 807.968 143.264 807.424 144.284C806.88 145.304 806.608 146.471 806.608 147.786V148.16C806.608 149.52 806.903 150.721 807.492 151.764C808.104 152.784 808.943 153.589 810.008 154.178C811.096 154.745 812.332 155.028 813.714 155.028C814.802 155.028 815.811 154.835 816.74 154.45C817.692 154.065 818.508 153.475 819.188 152.682L820.548 154.246C819.755 155.198 818.758 155.923 817.556 156.422C816.378 156.921 815.074 157.17 813.646 157.17ZM823.366 157L830.914 147.208L830.88 148.398L823.706 139.15H826.426L832.308 146.8L831.288 146.766L837.17 139.15H839.822L832.58 148.5L832.614 147.208L840.23 157H837.476L831.254 148.84L832.206 148.976L826.086 157H823.366ZM853.462 157.17C851.921 157.17 850.527 156.819 849.28 156.116C848.033 155.391 847.036 154.359 846.288 153.022C845.563 151.662 845.2 150.007 845.2 148.058C845.2 146.109 845.563 144.465 846.288 143.128C847.013 141.768 847.999 140.737 849.246 140.034C850.493 139.331 851.898 138.98 853.462 138.98C855.162 138.98 856.681 139.365 858.018 140.136C859.378 140.884 860.443 141.949 861.214 143.332C861.985 144.692 862.37 146.267 862.37 148.058C862.37 149.871 861.985 151.458 861.214 152.818C860.443 154.178 859.378 155.243 858.018 156.014C856.681 156.785 855.162 157.17 853.462 157.17ZM844.248 163.596V139.15H846.56V144.522L846.322 148.092L846.662 151.696V163.596H844.248ZM853.292 155.028C854.561 155.028 855.695 154.745 856.692 154.178C857.689 153.589 858.483 152.773 859.072 151.73C859.661 150.665 859.956 149.441 859.956 148.058C859.956 146.675 859.661 145.463 859.072 144.42C858.483 143.377 857.689 142.561 856.692 141.972C855.695 141.383 854.561 141.088 853.292 141.088C852.023 141.088 850.878 141.383 849.858 141.972C848.861 142.561 848.067 143.377 847.478 144.42C846.911 145.463 846.628 146.675 846.628 148.058C846.628 149.441 846.911 150.665 847.478 151.73C848.067 152.773 848.861 153.589 849.858 154.178C850.878 154.745 852.023 155.028 853.292 155.028ZM874.873 157.17C873.014 157.17 871.382 156.785 869.977 156.014C868.571 155.221 867.472 154.144 866.679 152.784C865.885 151.401 865.489 149.826 865.489 148.058C865.489 146.29 865.863 144.726 866.611 143.366C867.381 142.006 868.424 140.941 869.739 140.17C871.076 139.377 872.572 138.98 874.227 138.98C875.904 138.98 877.389 139.365 878.681 140.136C879.995 140.884 881.027 141.949 881.775 143.332C882.523 144.692 882.897 146.267 882.897 148.058C882.897 148.171 882.885 148.296 882.863 148.432C882.863 148.545 882.863 148.67 882.863 148.806H867.325V147.004H881.571L880.619 147.718C880.619 146.426 880.335 145.281 879.769 144.284C879.225 143.264 878.477 142.471 877.525 141.904C876.573 141.337 875.473 141.054 874.227 141.054C873.003 141.054 871.903 141.337 870.929 141.904C869.954 142.471 869.195 143.264 868.651 144.284C868.107 145.304 867.835 146.471 867.835 147.786V148.16C867.835 149.52 868.129 150.721 868.719 151.764C869.331 152.784 870.169 153.589 871.235 154.178C872.323 154.745 873.558 155.028 874.941 155.028C876.029 155.028 877.037 154.835 877.967 154.45C878.919 154.065 879.735 153.475 880.415 152.682L881.775 154.246C880.981 155.198 879.984 155.923 878.783 156.422C877.604 156.921 876.301 157.17 874.873 157.17ZM871.983 136.362L876.641 132.146H879.871L874.363 136.362H871.983ZM887.81 157V139.15H890.122V144.012L889.884 143.162C890.383 141.802 891.222 140.771 892.4 140.068C893.579 139.343 895.041 138.98 896.786 138.98V141.326C896.696 141.326 896.605 141.326 896.514 141.326C896.424 141.303 896.333 141.292 896.242 141.292C894.361 141.292 892.888 141.87 891.822 143.026C890.757 144.159 890.224 145.78 890.224 147.888V157H887.81ZM901.191 157V139.15H903.605V157H901.191ZM902.415 135.206C901.917 135.206 901.497 135.036 901.157 134.696C900.817 134.356 900.647 133.948 900.647 133.472C900.647 132.996 900.817 132.599 901.157 132.282C901.497 131.942 901.917 131.772 902.415 131.772C902.914 131.772 903.333 131.931 903.673 132.248C904.013 132.565 904.183 132.962 904.183 133.438C904.183 133.937 904.013 134.356 903.673 134.696C903.356 135.036 902.937 135.206 902.415 135.206ZM917.904 157.17C916.045 157.17 914.413 156.785 913.008 156.014C911.603 155.221 910.503 154.144 909.71 152.784C908.917 151.401 908.52 149.826 908.52 148.058C908.52 146.29 908.894 144.726 909.642 143.366C910.413 142.006 911.455 140.941 912.77 140.17C914.107 139.377 915.603 138.98 917.258 138.98C918.935 138.98 920.42 139.365 921.712 140.136C923.027 140.884 924.058 141.949 924.806 143.332C925.554 144.692 925.928 146.267 925.928 148.058C925.928 148.171 925.917 148.296 925.894 148.432C925.894 148.545 925.894 148.67 925.894 148.806H910.356V147.004H924.602L923.65 147.718C923.65 146.426 923.367 145.281 922.8 144.284C922.256 143.264 921.508 142.471 920.556 141.904C919.604 141.337 918.505 141.054 917.258 141.054C916.034 141.054 914.935 141.337 913.96 141.904C912.985 142.471 912.226 143.264 911.682 144.284C911.138 145.304 910.866 146.471 910.866 147.786V148.16C910.866 149.52 911.161 150.721 911.75 151.764C912.362 152.784 913.201 153.589 914.266 154.178C915.354 154.745 916.589 155.028 917.972 155.028C919.06 155.028 920.069 154.835 920.998 154.45C921.95 154.065 922.766 153.475 923.446 152.682L924.806 154.246C924.013 155.198 923.015 155.923 921.814 156.422C920.635 156.921 919.332 157.17 917.904 157.17ZM939.954 138.98C941.404 138.98 942.674 139.263 943.762 139.83C944.872 140.374 945.734 141.213 946.346 142.346C946.98 143.479 947.298 144.907 947.298 146.63V157H944.884V146.868C944.884 144.987 944.408 143.57 943.456 142.618C942.526 141.643 941.212 141.156 939.512 141.156C938.242 141.156 937.132 141.417 936.18 141.938C935.25 142.437 934.525 143.173 934.004 144.148C933.505 145.1 933.256 146.256 933.256 147.616V157H930.842V139.15H933.154V144.046L932.78 143.128C933.346 141.836 934.253 140.827 935.5 140.102C936.746 139.354 938.231 138.98 939.954 138.98ZM961.23 157.17C959.462 157.17 957.875 156.785 956.47 156.014C955.087 155.221 953.999 154.144 953.206 152.784C952.413 151.401 952.016 149.826 952.016 148.058C952.016 146.267 952.413 144.692 953.206 143.332C953.999 141.972 955.087 140.907 956.47 140.136C957.875 139.365 959.462 138.98 961.23 138.98C962.749 138.98 964.12 139.275 965.344 139.864C966.568 140.453 967.531 141.337 968.234 142.516L966.432 143.74C965.82 142.833 965.061 142.165 964.154 141.734C963.247 141.303 962.261 141.088 961.196 141.088C959.927 141.088 958.782 141.383 957.762 141.972C956.742 142.539 955.937 143.343 955.348 144.386C954.759 145.429 954.464 146.653 954.464 148.058C954.464 149.463 954.759 150.687 955.348 151.73C955.937 152.773 956.742 153.589 957.762 154.178C958.782 154.745 959.927 155.028 961.196 155.028C962.261 155.028 963.247 154.813 964.154 154.382C965.061 153.951 965.82 153.294 966.432 152.41L968.234 153.634C967.531 154.79 966.568 155.674 965.344 156.286C964.12 156.875 962.749 157.17 961.23 157.17ZM980.26 157.17C978.401 157.17 976.769 156.785 975.364 156.014C973.958 155.221 972.859 154.144 972.066 152.784C971.272 151.401 970.876 149.826 970.876 148.058C970.876 146.29 971.25 144.726 971.998 143.366C972.768 142.006 973.811 140.941 975.126 140.17C976.463 139.377 977.959 138.98 979.614 138.98C981.291 138.98 982.776 139.365 984.068 140.136C985.382 140.884 986.414 141.949 987.162 143.332C987.91 144.692 988.284 146.267 988.284 148.058C988.284 148.171 988.272 148.296 988.25 148.432C988.25 148.545 988.25 148.67 988.25 148.806H972.712V147.004H986.958L986.006 147.718C986.006 146.426 985.722 145.281 985.156 144.284C984.612 143.264 983.864 142.471 982.912 141.904C981.96 141.337 980.86 141.054 979.614 141.054C978.39 141.054 977.29 141.337 976.316 141.904C975.341 142.471 974.582 143.264 974.038 144.284C973.494 145.304 973.222 146.471 973.222 147.786V148.16C973.222 149.52 973.516 150.721 974.106 151.764C974.718 152.784 975.556 153.589 976.622 154.178C977.71 154.745 978.945 155.028 980.328 155.028C981.416 155.028 982.424 154.835 983.354 154.45C984.306 154.065 985.122 153.475 985.802 152.682L987.162 154.246C986.368 155.198 985.371 155.923 984.17 156.422C982.991 156.921 981.688 157.17 980.26 157.17ZM1009.51 157.17C1007.74 157.17 1006.15 156.785 1004.75 156.014C1003.36 155.221 1002.28 154.144 1001.48 152.784C1000.69 151.401 1000.29 149.826 1000.29 148.058C1000.29 146.267 1000.69 144.692 1001.48 143.332C1002.28 141.972 1003.36 140.907 1004.75 140.136C1006.15 139.365 1007.74 138.98 1009.51 138.98C1011.03 138.98 1012.4 139.275 1013.62 139.864C1014.85 140.453 1015.81 141.337 1016.51 142.516L1014.71 143.74C1014.1 142.833 1013.34 142.165 1012.43 141.734C1011.52 141.303 1010.54 141.088 1009.47 141.088C1008.2 141.088 1007.06 141.383 1006.04 141.972C1005.02 142.539 1004.21 143.343 1003.63 144.386C1003.04 145.429 1002.74 146.653 1002.74 148.058C1002.74 149.463 1003.04 150.687 1003.63 151.73C1004.21 152.773 1005.02 153.589 1006.04 154.178C1007.06 154.745 1008.2 155.028 1009.47 155.028C1010.54 155.028 1011.52 154.813 1012.43 154.382C1013.34 153.951 1014.1 153.294 1014.71 152.41L1016.51 153.634C1015.81 154.79 1014.85 155.674 1013.62 156.286C1012.4 156.875 1011.03 157.17 1009.51 157.17ZM1028.23 157.17C1026.51 157.17 1024.96 156.785 1023.57 156.014C1022.21 155.221 1021.14 154.144 1020.34 152.784C1019.55 151.401 1019.15 149.826 1019.15 148.058C1019.15 146.267 1019.55 144.692 1020.34 143.332C1021.14 141.972 1022.21 140.907 1023.57 140.136C1024.93 139.365 1026.49 138.98 1028.23 138.98C1030 138.98 1031.56 139.365 1032.92 140.136C1034.31 140.907 1035.38 141.972 1036.15 143.332C1036.95 144.692 1037.34 146.267 1037.34 148.058C1037.34 149.826 1036.95 151.401 1036.15 152.784C1035.38 154.144 1034.31 155.221 1032.92 156.014C1031.54 156.785 1029.98 157.17 1028.23 157.17ZM1028.23 155.028C1029.52 155.028 1030.67 154.745 1031.66 154.178C1032.66 153.589 1033.44 152.773 1034.01 151.73C1034.6 150.665 1034.89 149.441 1034.89 148.058C1034.89 146.653 1034.6 145.429 1034.01 144.386C1033.44 143.343 1032.66 142.539 1031.66 141.972C1030.67 141.383 1029.53 141.088 1028.26 141.088C1027 141.088 1025.86 141.383 1024.86 141.972C1023.87 142.539 1023.07 143.343 1022.48 144.386C1021.9 145.429 1021.6 146.653 1021.6 148.058C1021.6 149.441 1021.9 150.665 1022.48 151.73C1023.07 152.773 1023.87 153.589 1024.86 154.178C1025.86 154.745 1026.98 155.028 1028.23 155.028ZM1051.38 138.98C1052.83 138.98 1054.1 139.263 1055.19 139.83C1056.3 140.374 1057.16 141.213 1057.78 142.346C1058.41 143.479 1058.73 144.907 1058.73 146.63V157H1056.31V146.868C1056.31 144.987 1055.84 143.57 1054.89 142.618C1053.96 141.643 1052.64 141.156 1050.94 141.156C1049.67 141.156 1048.56 141.417 1047.61 141.938C1046.68 142.437 1045.95 143.173 1045.43 144.148C1044.93 145.1 1044.69 146.256 1044.69 147.616V157H1042.27V139.15H1044.58V144.046L1044.21 143.128C1044.78 141.836 1045.68 140.827 1046.93 140.102C1048.18 139.354 1049.66 138.98 1051.38 138.98ZM1072.66 157.17C1070.89 157.17 1069.31 156.785 1067.9 156.014C1066.52 155.221 1065.43 154.144 1064.64 152.784C1063.84 151.401 1063.45 149.826 1063.45 148.058C1063.45 146.267 1063.84 144.692 1064.64 143.332C1065.43 141.972 1066.52 140.907 1067.9 140.136C1069.31 139.365 1070.89 138.98 1072.66 138.98C1074.18 138.98 1075.55 139.275 1076.77 139.864C1078 140.453 1078.96 141.337 1079.66 142.516L1077.86 143.74C1077.25 142.833 1076.49 142.165 1075.58 141.734C1074.68 141.303 1073.69 141.088 1072.63 141.088C1071.36 141.088 1070.21 141.383 1069.19 141.972C1068.17 142.539 1067.37 143.343 1066.78 144.386C1066.19 145.429 1065.89 146.653 1065.89 148.058C1065.89 149.463 1066.19 150.687 1066.78 151.73C1067.37 152.773 1068.17 153.589 1069.19 154.178C1070.21 154.745 1071.36 155.028 1072.63 155.028C1073.69 155.028 1074.68 154.813 1075.58 154.382C1076.49 153.951 1077.25 153.294 1077.86 152.41L1079.66 153.634C1078.96 154.79 1078 155.674 1076.77 156.286C1075.55 156.875 1074.18 157.17 1072.66 157.17ZM1084.41 157V139.15H1086.72V144.012L1086.48 143.162C1086.98 141.802 1087.82 140.771 1089 140.068C1090.17 139.343 1091.64 138.98 1093.38 138.98V141.326C1093.29 141.326 1093.2 141.326 1093.11 141.326C1093.02 141.303 1092.93 141.292 1092.84 141.292C1090.96 141.292 1089.48 141.87 1088.42 143.026C1087.35 144.159 1086.82 145.78 1086.82 147.888V157H1084.41ZM1105.2 157.17C1103.34 157.17 1101.71 156.785 1100.31 156.014C1098.9 155.221 1097.8 154.144 1097.01 152.784C1096.22 151.401 1095.82 149.826 1095.82 148.058C1095.82 146.29 1096.19 144.726 1096.94 143.366C1097.71 142.006 1098.75 140.941 1100.07 140.17C1101.41 139.377 1102.9 138.98 1104.56 138.98C1106.23 138.98 1107.72 139.365 1109.01 140.136C1110.33 140.884 1111.36 141.949 1112.1 143.332C1112.85 144.692 1113.23 146.267 1113.23 148.058C1113.23 148.171 1113.22 148.296 1113.19 148.432C1113.19 148.545 1113.19 148.67 1113.19 148.806H1097.65V147.004H1111.9L1110.95 147.718C1110.95 146.426 1110.67 145.281 1110.1 144.284C1109.55 143.264 1108.81 142.471 1107.85 141.904C1106.9 141.337 1105.8 141.054 1104.56 141.054C1103.33 141.054 1102.23 141.337 1101.26 141.904C1100.28 142.471 1099.52 143.264 1098.98 144.284C1098.44 145.304 1098.16 146.471 1098.16 147.786V148.16C1098.16 149.52 1098.46 150.721 1099.05 151.764C1099.66 152.784 1100.5 153.589 1101.56 154.178C1102.65 154.745 1103.89 155.028 1105.27 155.028C1106.36 155.028 1107.37 154.835 1108.3 154.45C1109.25 154.065 1110.06 153.475 1110.74 152.682L1112.1 154.246C1111.31 155.198 1110.31 155.923 1109.11 156.422C1107.93 156.921 1106.63 157.17 1105.2 157.17ZM1104.35 136.362L1098.84 132.146H1102.07L1106.73 136.362H1104.35ZM1123.78 157.17C1122.11 157.17 1120.82 156.717 1119.91 155.81C1119 154.903 1118.55 153.623 1118.55 151.968V135.206H1120.96V151.832C1120.96 152.875 1121.22 153.679 1121.74 154.246C1122.29 154.813 1123.06 155.096 1124.06 155.096C1125.12 155.096 1126.01 154.79 1126.71 154.178L1127.56 155.912C1127.08 156.343 1126.5 156.66 1125.82 156.864C1125.17 157.068 1124.49 157.17 1123.78 157.17ZM1115.35 141.156V139.15H1126.4V141.156H1115.35ZM1138.9 157.17C1137.05 157.17 1135.41 156.785 1134.01 156.014C1132.6 155.221 1131.5 154.144 1130.71 152.784C1129.92 151.401 1129.52 149.826 1129.52 148.058C1129.52 146.29 1129.89 144.726 1130.64 143.366C1131.41 142.006 1132.46 140.941 1133.77 140.17C1135.11 139.377 1136.6 138.98 1138.26 138.98C1139.94 138.98 1141.42 139.365 1142.71 140.136C1144.03 140.884 1145.06 141.949 1145.81 143.332C1146.55 144.692 1146.93 146.267 1146.93 148.058C1146.93 148.171 1146.92 148.296 1146.89 148.432C1146.89 148.545 1146.89 148.67 1146.89 148.806H1131.36V147.004H1145.6L1144.65 147.718C1144.65 146.426 1144.37 145.281 1143.8 144.284C1143.26 143.264 1142.51 142.471 1141.56 141.904C1140.6 141.337 1139.5 141.054 1138.26 141.054C1137.03 141.054 1135.93 141.337 1134.96 141.904C1133.99 142.471 1133.23 143.264 1132.68 144.284C1132.14 145.304 1131.87 146.471 1131.87 147.786V148.16C1131.87 149.52 1132.16 150.721 1132.75 151.764C1133.36 152.784 1134.2 153.589 1135.27 154.178C1136.35 154.745 1137.59 155.028 1138.97 155.028C1140.06 155.028 1141.07 154.835 1142 154.45C1142.95 154.065 1143.77 153.475 1144.45 152.682L1145.81 154.246C1145.01 155.198 1144.02 155.923 1142.81 156.422C1141.64 156.921 1140.33 157.17 1138.9 157.17ZM1169.95 157.17C1168.41 157.17 1167.02 156.819 1165.77 156.116C1164.53 155.391 1163.53 154.359 1162.78 153.022C1162.05 151.662 1161.69 150.007 1161.69 148.058C1161.69 146.109 1162.05 144.465 1162.78 143.128C1163.51 141.768 1164.49 140.737 1165.74 140.034C1166.98 139.331 1168.39 138.98 1169.95 138.98C1171.65 138.98 1173.17 139.365 1174.51 140.136C1175.87 140.884 1176.94 141.949 1177.71 143.332C1178.48 144.692 1178.86 146.267 1178.86 148.058C1178.86 149.871 1178.48 151.458 1177.71 152.818C1176.94 154.178 1175.87 155.243 1174.51 156.014C1173.17 156.785 1171.65 157.17 1169.95 157.17ZM1160.74 163.596V139.15H1163.05V144.522L1162.81 148.092L1163.15 151.696V163.596H1160.74ZM1169.78 155.028C1171.05 155.028 1172.19 154.745 1173.18 154.178C1174.18 153.589 1174.97 152.773 1175.56 151.73C1176.15 150.665 1176.45 149.441 1176.45 148.058C1176.45 146.675 1176.15 145.463 1175.56 144.42C1174.97 143.377 1174.18 142.561 1173.18 141.972C1172.19 141.383 1171.05 141.088 1169.78 141.088C1168.51 141.088 1167.37 141.383 1166.35 141.972C1165.35 142.561 1164.56 143.377 1163.97 144.42C1163.4 145.463 1163.12 146.675 1163.12 148.058C1163.12 149.441 1163.4 150.665 1163.97 151.73C1164.56 152.773 1165.35 153.589 1166.35 154.178C1167.37 154.745 1168.51 155.028 1169.78 155.028ZM1194.87 157V153.056L1194.77 152.41V145.814C1194.77 144.295 1194.34 143.128 1193.48 142.312C1192.64 141.496 1191.38 141.088 1189.7 141.088C1188.55 141.088 1187.45 141.281 1186.4 141.666C1185.36 142.051 1184.48 142.561 1183.75 143.196L1182.66 141.394C1183.57 140.623 1184.66 140.034 1185.93 139.626C1187.2 139.195 1188.53 138.98 1189.94 138.98C1192.25 138.98 1194.03 139.558 1195.28 140.714C1196.55 141.847 1197.18 143.581 1197.18 145.916V157H1194.87ZM1188.72 157.17C1187.38 157.17 1186.21 156.955 1185.21 156.524C1184.24 156.071 1183.49 155.459 1182.97 154.688C1182.45 153.895 1182.19 152.988 1182.19 151.968C1182.19 151.039 1182.4 150.2 1182.83 149.452C1183.29 148.681 1184.01 148.069 1185.01 147.616C1186.03 147.14 1187.39 146.902 1189.09 146.902H1195.24V148.704H1189.16C1187.43 148.704 1186.23 149.01 1185.55 149.622C1184.9 150.234 1184.57 150.993 1184.57 151.9C1184.57 152.92 1184.96 153.736 1185.76 154.348C1186.55 154.96 1187.66 155.266 1189.09 155.266C1190.45 155.266 1191.62 154.96 1192.59 154.348C1193.59 153.713 1194.31 152.807 1194.77 151.628L1195.31 153.294C1194.86 154.473 1194.06 155.413 1192.93 156.116C1191.82 156.819 1190.42 157.17 1188.72 157.17ZM1203.74 157V139.15H1206.05V144.012L1205.81 143.162C1206.31 141.802 1207.15 140.771 1208.33 140.068C1209.51 139.343 1210.97 138.98 1212.71 138.98V141.326C1212.62 141.326 1212.53 141.326 1212.44 141.326C1212.35 141.303 1212.26 141.292 1212.17 141.292C1210.29 141.292 1208.82 141.87 1207.75 143.026C1206.68 144.159 1206.15 145.78 1206.15 147.888V157H1203.74ZM1226.28 157V131.772H1228.7V157H1226.28ZM1246.6 157V153.056L1246.5 152.41V145.814C1246.5 144.295 1246.07 143.128 1245.21 142.312C1244.37 141.496 1243.11 141.088 1241.43 141.088C1240.28 141.088 1239.18 141.281 1238.13 141.666C1237.09 142.051 1236.21 142.561 1235.48 143.196L1234.39 141.394C1235.3 140.623 1236.39 140.034 1237.66 139.626C1238.93 139.195 1240.26 138.98 1241.67 138.98C1243.98 138.98 1245.76 139.558 1247.01 140.714C1248.28 141.847 1248.91 143.581 1248.91 145.916V157H1246.6ZM1240.45 157.17C1239.11 157.17 1237.94 156.955 1236.94 156.524C1235.97 156.071 1235.22 155.459 1234.7 154.688C1234.18 153.895 1233.92 152.988 1233.92 151.968C1233.92 151.039 1234.13 150.2 1234.56 149.452C1235.02 148.681 1235.74 148.069 1236.74 147.616C1237.76 147.14 1239.12 146.902 1240.82 146.902H1246.97V148.704H1240.89C1239.17 148.704 1237.96 149.01 1237.28 149.622C1236.63 150.234 1236.3 150.993 1236.3 151.9C1236.3 152.92 1236.69 153.736 1237.49 154.348C1238.28 154.96 1239.39 155.266 1240.82 155.266C1242.18 155.266 1243.35 154.96 1244.32 154.348C1245.32 153.713 1246.04 152.807 1246.5 151.628L1247.04 153.294C1246.59 154.473 1245.8 155.413 1244.66 156.116C1243.55 156.819 1242.15 157.17 1240.45 157.17ZM1264.77 157V136.906C1264.77 135.319 1265.24 134.039 1266.17 133.064C1267.1 132.089 1268.44 131.602 1270.18 131.602C1270.86 131.602 1271.52 131.693 1272.15 131.874C1272.79 132.055 1273.32 132.339 1273.75 132.724L1272.93 134.526C1272.59 134.231 1272.2 134.016 1271.74 133.88C1271.29 133.721 1270.8 133.642 1270.28 133.642C1269.26 133.642 1268.48 133.925 1267.94 134.492C1267.39 135.059 1267.12 135.897 1267.12 137.008V139.728L1267.19 140.85V157H1264.77ZM1261.58 141.156V139.15H1272.63V141.156H1261.58ZM1282.87 157.17C1281.14 157.17 1279.59 156.785 1278.21 156.014C1276.85 155.221 1275.77 154.144 1274.98 152.784C1274.18 151.401 1273.79 149.826 1273.79 148.058C1273.79 146.267 1274.18 144.692 1274.98 143.332C1275.77 141.972 1276.85 140.907 1278.21 140.136C1279.57 139.365 1281.12 138.98 1282.87 138.98C1284.63 138.98 1286.2 139.365 1287.56 140.136C1288.94 140.907 1290.02 141.972 1290.79 143.332C1291.58 144.692 1291.98 146.267 1291.98 148.058C1291.98 149.826 1291.58 151.401 1290.79 152.784C1290.02 154.144 1288.94 155.221 1287.56 156.014C1286.17 156.785 1284.61 157.17 1282.87 157.17ZM1282.87 155.028C1284.16 155.028 1285.3 154.745 1286.3 154.178C1287.3 153.589 1288.08 152.773 1288.65 151.73C1289.23 150.665 1289.53 149.441 1289.53 148.058C1289.53 146.653 1289.23 145.429 1288.65 144.386C1288.08 143.343 1287.3 142.539 1286.3 141.972C1285.3 141.383 1284.17 141.088 1282.9 141.088C1281.63 141.088 1280.5 141.383 1279.5 141.972C1278.5 142.539 1277.71 143.343 1277.12 144.386C1276.53 145.429 1276.24 146.653 1276.24 148.058C1276.24 149.441 1276.53 150.665 1277.12 151.73C1277.71 152.773 1278.5 153.589 1279.5 154.178C1280.5 154.745 1281.62 155.028 1282.87 155.028ZM1296.91 157V139.15H1299.22V144.012L1298.98 143.162C1299.48 141.802 1300.32 140.771 1301.5 140.068C1302.67 139.343 1304.14 138.98 1305.88 138.98V141.326C1305.79 141.326 1305.7 141.326 1305.61 141.326C1305.52 141.303 1305.43 141.292 1305.34 141.292C1303.46 141.292 1301.98 141.87 1300.92 143.026C1299.85 144.159 1299.32 145.78 1299.32 147.888V157H1296.91ZM1332.59 138.98C1334.04 138.98 1335.3 139.263 1336.36 139.83C1337.45 140.374 1338.29 141.213 1338.88 142.346C1339.49 143.479 1339.8 144.907 1339.8 146.63V157H1337.38V146.868C1337.38 144.987 1336.93 143.57 1336.02 142.618C1335.14 141.643 1333.88 141.156 1332.25 141.156C1331.03 141.156 1329.96 141.417 1329.05 141.938C1328.17 142.437 1327.48 143.173 1326.98 144.148C1326.5 145.1 1326.27 146.256 1326.27 147.616V157H1323.85V146.868C1323.85 144.987 1323.4 143.57 1322.49 142.618C1321.59 141.643 1320.32 141.156 1318.68 141.156C1317.48 141.156 1316.43 141.417 1315.52 141.938C1314.62 142.437 1313.91 143.173 1313.41 144.148C1312.94 145.1 1312.7 146.256 1312.7 147.616V157H1310.29V139.15H1312.6V143.978L1312.22 143.128C1312.77 141.836 1313.64 140.827 1314.84 140.102C1316.07 139.354 1317.51 138.98 1319.16 138.98C1320.91 138.98 1322.39 139.422 1323.61 140.306C1324.84 141.167 1325.63 142.471 1325.99 144.216L1325.04 143.842C1325.56 142.391 1326.48 141.224 1327.8 140.34C1329.13 139.433 1330.73 138.98 1332.59 138.98ZM1357.53 157V153.056L1357.43 152.41V145.814C1357.43 144.295 1357 143.128 1356.14 142.312C1355.3 141.496 1354.04 141.088 1352.36 141.088C1351.21 141.088 1350.11 141.281 1349.07 141.666C1348.02 142.051 1347.14 142.561 1346.41 143.196L1345.33 141.394C1346.23 140.623 1347.32 140.034 1348.59 139.626C1349.86 139.195 1351.2 138.98 1352.6 138.98C1354.91 138.98 1356.69 139.558 1357.94 140.714C1359.21 141.847 1359.84 143.581 1359.84 145.916V157H1357.53ZM1351.38 157.17C1350.04 157.17 1348.87 156.955 1347.88 156.524C1346.9 156.071 1346.15 155.459 1345.63 154.688C1345.11 153.895 1344.85 152.988 1344.85 151.968C1344.85 151.039 1345.06 150.2 1345.5 149.452C1345.95 148.681 1346.67 148.069 1347.67 147.616C1348.69 147.14 1350.05 146.902 1351.75 146.902H1357.91V148.704H1351.82C1350.1 148.704 1348.9 149.01 1348.22 149.622C1347.56 150.234 1347.23 150.993 1347.23 151.9C1347.23 152.92 1347.63 153.736 1348.42 154.348C1349.21 154.96 1350.32 155.266 1351.75 155.266C1353.11 155.266 1354.28 154.96 1355.25 154.348C1356.25 153.713 1356.98 152.807 1357.43 151.628L1357.97 153.294C1357.52 154.473 1356.73 155.413 1355.59 156.116C1354.48 156.819 1353.08 157.17 1351.38 157.17ZM1372.04 157.17C1370.37 157.17 1369.07 156.717 1368.17 155.81C1367.26 154.903 1366.81 153.623 1366.81 151.968V135.206H1369.22V151.832C1369.22 152.875 1369.48 153.679 1370 154.246C1370.55 154.813 1371.32 155.096 1372.32 155.096C1373.38 155.096 1374.27 154.79 1374.97 154.178L1375.82 155.912C1375.34 156.343 1374.76 156.66 1374.08 156.864C1373.43 157.068 1372.75 157.17 1372.04 157.17ZM1363.61 141.156V139.15H1374.66V141.156H1363.61ZM1380.21 157V139.15H1382.63V157H1380.21ZM1381.44 135.206C1380.94 135.206 1380.52 135.036 1380.18 134.696C1379.84 134.356 1379.67 133.948 1379.67 133.472C1379.67 132.996 1379.84 132.599 1380.18 132.282C1380.52 131.942 1380.94 131.772 1381.44 131.772C1381.94 131.772 1382.35 131.931 1382.69 132.248C1383.03 132.565 1383.2 132.962 1383.2 133.438C1383.2 133.937 1383.03 134.356 1382.69 134.696C1382.38 135.036 1381.96 135.206 1381.44 135.206ZM1396.62 157.17C1394.9 157.17 1393.34 156.785 1391.96 156.014C1390.6 155.221 1389.52 154.144 1388.73 152.784C1387.94 151.401 1387.54 149.826 1387.54 148.058C1387.54 146.267 1387.94 144.692 1388.73 143.332C1389.52 141.972 1390.6 140.907 1391.96 140.136C1393.32 139.365 1394.87 138.98 1396.62 138.98C1398.39 138.98 1399.95 139.365 1401.31 140.136C1402.69 140.907 1403.77 141.972 1404.54 143.332C1405.33 144.692 1405.73 146.267 1405.73 148.058C1405.73 149.826 1405.33 151.401 1404.54 152.784C1403.77 154.144 1402.69 155.221 1401.31 156.014C1399.93 156.785 1398.36 157.17 1396.62 157.17ZM1396.62 155.028C1397.91 155.028 1399.06 154.745 1400.05 154.178C1401.05 153.589 1401.83 152.773 1402.4 151.73C1402.99 150.665 1403.28 149.441 1403.28 148.058C1403.28 146.653 1402.99 145.429 1402.4 144.386C1401.83 143.343 1401.05 142.539 1400.05 141.972C1399.06 141.383 1397.92 141.088 1396.65 141.088C1395.38 141.088 1394.25 141.383 1393.25 141.972C1392.26 142.539 1391.46 143.343 1390.87 144.386C1390.28 145.429 1389.99 146.653 1389.99 148.058C1389.99 149.441 1390.28 150.665 1390.87 151.73C1391.46 152.773 1392.26 153.589 1393.25 154.178C1394.25 154.745 1395.37 155.028 1396.62 155.028ZM1419.77 138.98C1421.22 138.98 1422.49 139.263 1423.58 139.83C1424.69 140.374 1425.55 141.213 1426.16 142.346C1426.8 143.479 1427.12 144.907 1427.12 146.63V157H1424.7V146.868C1424.7 144.987 1424.23 143.57 1423.27 142.618C1422.34 141.643 1421.03 141.156 1419.33 141.156C1418.06 141.156 1416.95 141.417 1416 141.938C1415.07 142.437 1414.34 143.173 1413.82 144.148C1413.32 145.1 1413.07 146.256 1413.07 147.616V157H1410.66V139.15H1412.97V144.046L1412.6 143.128C1413.16 141.836 1414.07 140.827 1415.32 140.102C1416.56 139.354 1418.05 138.98 1419.77 138.98ZM1431.91 140.068L1433.4 133.812L1433.68 135.24C1433.16 135.24 1432.71 135.081 1432.35 134.764C1432.01 134.424 1431.84 133.982 1431.84 133.438C1431.84 132.894 1432.01 132.452 1432.35 132.112C1432.71 131.772 1433.14 131.602 1433.64 131.602C1434.16 131.602 1434.58 131.783 1434.9 132.146C1435.24 132.486 1435.41 132.917 1435.41 133.438C1435.41 133.619 1435.4 133.801 1435.38 133.982C1435.35 134.163 1435.31 134.367 1435.24 134.594C1435.2 134.798 1435.12 135.059 1435 135.376L1433.54 140.068H1431.91ZM1437.69 140.068L1439.18 133.812L1439.46 135.24C1438.94 135.24 1438.49 135.081 1438.13 134.764C1437.79 134.424 1437.62 133.982 1437.62 133.438C1437.62 132.894 1437.79 132.452 1438.13 132.112C1438.49 131.772 1438.92 131.602 1439.42 131.602C1439.94 131.602 1440.36 131.783 1440.68 132.146C1441.02 132.486 1441.19 132.917 1441.19 133.438C1441.19 133.619 1441.18 133.801 1441.16 133.982C1441.13 134.163 1441.09 134.367 1441.02 134.594C1440.98 134.798 1440.9 135.059 1440.78 135.376L1439.32 140.068H1437.69Z" fill="white"/>
<defs>
<linearGradient id="paint0_linear_1321_1217" x1="85.9536" y1="273.8" x2="1512.87" y2="759.479" gradientUnits="userSpaceOnUse">
<stop stop-color="#54E0E9"/>
<stop offset="0.43" stop-color="#816CFF"/>
<stop offset="0.95" stop-color="#B163FF"/>
</linearGradient>
<linearGradient id="paint1_linear_1321_1217" x1="160.642" y1="54.4011" x2="1587.54" y2="540.067" gradientUnits="userSpaceOnUse">
<stop stop-color="#54E0E9"/>
<stop offset="0.43" stop-color="#816CFF"/>
<stop offset="0.95" stop-color="#B163FF"/>
</linearGradient>
<linearGradient id="paint2_linear_1321_1217" x1="127.288" y1="152.359" x2="1554.2" y2="638.038" gradientUnits="userSpaceOnUse">
<stop stop-color="#54E0E9"/>
<stop offset="0.43" stop-color="#816CFF"/>
<stop offset="0.95" stop-color="#B163FF"/>
</linearGradient>
<linearGradient id="paint3_linear_1321_1217" x1="110.301" y1="202.298" x2="1537.2" y2="687.977" gradientUnits="userSpaceOnUse">
<stop stop-color="#54E0E9"/>
<stop offset="0.43" stop-color="#816CFF"/>
<stop offset="0.95" stop-color="#B163FF"/>
</linearGradient>
<linearGradient id="paint4_linear_1321_1217" x1="132.68" y1="136.559" x2="1559.58" y2="622.225" gradientUnits="userSpaceOnUse">
<stop stop-color="#54E0E9"/>
<stop offset="0.43" stop-color="#816CFF"/>
<stop offset="0.95" stop-color="#B163FF"/>
</linearGradient>
<linearGradient id="paint5_linear_1321_1217" x1="149.679" y1="86.5817" x2="1576.59" y2="572.261" gradientUnits="userSpaceOnUse">
<stop stop-color="#54E0E9"/>
<stop offset="0.43" stop-color="#816CFF"/>
<stop offset="0.95" stop-color="#B163FF"/>
</linearGradient>
<linearGradient id="paint6_linear_1321_1217" x1="167.302" y1="34.8042" x2="1594.2" y2="520.483" gradientUnits="userSpaceOnUse">
<stop stop-color="#54E0E9"/>
<stop offset="0.43" stop-color="#816CFF"/>
<stop offset="0.95" stop-color="#B163FF"/>
</linearGradient>
<linearGradient id="paint7_linear_1321_1217" x1="186.545" y1="-21.7264" x2="1613.44" y2="463.952" gradientUnits="userSpaceOnUse">
<stop stop-color="#54E0E9"/>
<stop offset="0.43" stop-color="#816CFF"/>
<stop offset="0.95" stop-color="#B163FF"/>
</linearGradient>
<linearGradient id="paint8_linear_1321_1217" x1="213.081" y1="-99.6904" x2="1639.99" y2="385.976" gradientUnits="userSpaceOnUse">
<stop stop-color="#54E0E9"/>
<stop offset="0.43" stop-color="#816CFF"/>
<stop offset="0.95" stop-color="#B163FF"/>
</linearGradient>
<linearGradient id="paint9_linear_1321_1217" x1="222.552" y1="-127.522" x2="1649.47" y2="358.158" gradientUnits="userSpaceOnUse">
<stop stop-color="#54E0E9"/>
<stop offset="0.43" stop-color="#816CFF"/>
<stop offset="0.95" stop-color="#B163FF"/>
</linearGradient>
</defs>
</svg>
