<svg width="24" height="24" viewBox="0 0 24 24" fill="none" xmlns="http://www.w3.org/2000/svg">
<path fill-rule="evenodd" clip-rule="evenodd" d="M17.9033 5.53217C18.1962 5.82506 18.1962 6.29994 17.9033 6.59283L6.58956 17.9065C6.29666 18.1994 5.82179 18.1994 5.5289 17.9065C5.236 17.6136 5.236 17.1388 5.5289 16.8459L16.8426 5.53217C17.1355 5.23928 17.6104 5.23928 17.9033 5.53217Z" fill="white"/>
<path fill-rule="evenodd" clip-rule="evenodd" d="M17.9053 17.9072C17.6124 18.2001 17.1376 18.2001 16.8447 17.9072L5.53096 6.59346C5.23807 6.30057 5.23807 5.82569 5.53096 5.5328C5.82385 5.23991 6.29873 5.23991 6.59162 5.5328L17.9053 16.8465C18.1982 17.1394 18.1982 17.6143 17.9053 17.9072Z" fill="white"/>
<path fill-rule="evenodd" clip-rule="evenodd" d="M17.9053 17.9072C17.6124 18.2001 17.1376 18.2001 16.8447 17.9072L5.53096 6.59346C5.23807 6.30057 5.23807 5.82569 5.53096 5.5328C5.82385 5.23991 6.29873 5.23991 6.59162 5.5328L17.9053 16.8465C18.1982 17.1394 18.1982 17.6143 17.9053 17.9072Z" fill="white"/>
</svg>
