<svg width="493" height="477" viewBox="0 0 493 477" fill="none" xmlns="http://www.w3.org/2000/svg">
<path d="M230.969 311.076C200.969 346.22 163.134 383.503 139.279 392.837C100.638 407.963 65.3792 362.64 88.8317 295.855C106.045 246.813 162.839 217.065 212.105 235.666C228.916 242.016 233.612 245.654 261.72 264.037C116.967 206.164 99.176 346.888 138.984 357.244C157.002 361.931 187.619 352.038 230.969 311.076Z" fill="url(#paint0_linear_1276_1182)"/>
<path d="M355.142 159.139C422.413 107.085 370.142 95.72 343.711 122.388C329.596 136.628 329.958 158.485 329.475 162.641C327.49 161.088 318.366 151.617 311.832 143.032C270.375 88.5932 369.645 59.0504 406.863 101.334C426.17 123.273 383.451 154.86 355.155 159.139H355.142Z" fill="url(#paint1_linear_1276_1182)"/>
<path d="M276.064 280.921C257.925 253.599 246.453 224.533 253.725 191.543C256.663 178.243 264.056 167.301 274.722 158.307C296.176 140.211 331.663 156.713 328.738 184.375C327.853 192.756 323.747 201.599 318.394 206.791C321.923 195.413 322.339 192.715 321.051 187.986C320.594 186.678 320.004 185.411 319.306 184.212C317.106 180.451 314.597 178.393 311.404 176.349C301.744 170.163 289.333 172.983 278.479 188.845C272.173 198.056 268.51 208.89 267.544 220.064C267.518 220.377 267.491 220.704 267.464 221.018C265.116 252.005 275.058 277.773 276.051 280.934L276.064 280.921Z" fill="url(#paint2_linear_1276_1182)"/>
<defs>
<linearGradient id="paint0_linear_1276_1182" x1="117.946" y1="250.86" x2="212.636" y2="359.784" gradientUnits="userSpaceOnUse">
<stop stop-color="#54E0E9"/>
<stop offset="0.43" stop-color="#816CFF"/>
<stop offset="0.95" stop-color="#B163FF"/>
</linearGradient>
<linearGradient id="paint1_linear_1276_1182" x1="319.802" y1="75.3752" x2="414.492" y2="184.299" gradientUnits="userSpaceOnUse">
<stop stop-color="#54E0E9"/>
<stop offset="0.51" stop-color="#816CFF"/>
<stop offset="0.92" stop-color="#B163FF"/>
</linearGradient>
<linearGradient id="paint2_linear_1276_1182" x1="236.605" y1="147.706" x2="331.295" y2="256.629" gradientUnits="userSpaceOnUse">
<stop offset="0.16" stop-color="#54E0E9"/>
<stop offset="0.51" stop-color="#816CFF"/>
<stop offset="0.99" stop-color="#B163FF"/>
</linearGradient>
</defs>
</svg>
