<svg width="100" height="80" viewBox="0 0 188 182" fill="none" xmlns="http://www.w3.org/2000/svg">
<path d="M88.0774 118.692C76.6373 132.101 62.2092 146.326 53.1124 149.887C38.3774 155.659 24.9316 138.366 33.875 112.884C40.4392 94.1717 62.0967 82.8216 80.8839 89.9186C87.2946 92.3415 89.0854 93.7297 99.8041 100.744C44.6039 78.6621 37.8197 132.355 52.9998 136.307C59.8711 138.095 71.5466 134.321 88.0774 118.692Z" fill="url(#paint0_linear_345_2160)"/>
<path d="M135.429 60.7196C161.083 40.8583 141.149 36.5221 131.07 46.6971C125.688 52.1304 125.826 60.4701 125.642 62.0559C124.885 61.4631 121.405 57.8496 118.914 54.5741C103.104 33.8028 140.96 22.5307 155.153 38.6642C162.515 47.0351 146.225 59.0871 135.434 60.7196H135.429Z" fill="url(#paint1_linear_345_2160)"/>
<path d="M105.274 107.186C98.3567 96.7611 93.9822 85.671 96.7553 73.0835C97.8757 68.009 100.695 63.8339 104.762 60.4024C112.943 53.4977 126.476 59.794 125.361 70.3486C125.023 73.5462 123.457 76.9206 121.416 78.9015C122.762 74.5601 122.92 73.5306 122.429 71.7265C122.255 71.2273 122.03 70.7438 121.764 70.2862C120.925 68.8512 119.968 68.0661 118.75 67.2863C115.067 64.9258 110.334 66.002 106.195 72.054C103.79 75.5687 102.393 79.7022 102.025 83.9656C102.015 84.0852 102.005 84.21 101.994 84.3296C101.099 96.1528 104.89 105.985 105.269 107.191L105.274 107.186Z" fill="url(#paint2_linear_345_2160)"/>
<defs>
<linearGradient id="paint0_linear_345_2160" x1="44.9774" y1="95.7159" x2="81.1093" y2="137.256" gradientUnits="userSpaceOnUse">
<stop stop-color="#54E0E9"/>
<stop offset="0.43" stop-color="#816CFF"/>
<stop offset="0.95" stop-color="#B163FF"/>
</linearGradient>
<linearGradient id="paint1_linear_345_2160" x1="121.953" y1="28.7595" x2="158.085" y2="70.2996" gradientUnits="userSpaceOnUse">
<stop stop-color="#54E0E9"/>
<stop offset="0.51" stop-color="#816CFF"/>
<stop offset="0.92" stop-color="#B163FF"/>
</linearGradient>
<linearGradient id="paint2_linear_345_2160" x1="90.2268" y1="56.3573" x2="126.359" y2="97.8974" gradientUnits="userSpaceOnUse">
<stop offset="0.16" stop-color="#54E0E9"/>
<stop offset="0.51" stop-color="#816CFF"/>
<stop offset="0.99" stop-color="#B163FF"/>
</linearGradient>
</defs>
</svg>
