<svg width="250" height="75" viewBox="0 0 580 172" fill="none" xmlns="http://www.w3.org/2000/svg">
<path d="M85.1948 112.303C74.132 125.041 60.1798 138.555 51.383 141.938C37.134 147.42 24.1317 130.993 32.7801 106.786C39.1278 89.0102 60.0709 78.2281 78.2385 84.97C84.4378 87.2717 86.1694 88.5904 96.5346 95.2533C43.1552 74.2768 36.5947 125.283 51.2741 129.037C57.9187 130.736 69.2091 127.15 85.1948 112.303Z" fill="url(#paint0_linear_345_2107)"/>
<path d="M130.985 57.2325C155.792 38.3651 136.517 34.2458 126.77 43.9117C121.565 49.0731 121.699 56.9955 121.52 58.5019C120.788 57.9388 117.424 54.5061 115.014 51.3945C99.7263 31.6627 136.333 20.9546 150.058 36.2808C157.178 44.2327 141.425 55.6816 130.99 57.2325H130.985Z" fill="url(#paint1_linear_345_2107)"/>
<path d="M101.824 101.373C95.1344 91.4697 90.9042 80.9345 93.5858 68.9769C94.6693 64.1563 97.3955 60.1902 101.329 56.9304C109.24 50.3712 122.326 56.3525 121.248 66.3789C120.921 69.4165 119.407 72.622 117.433 74.5038C118.734 70.3796 118.888 69.4017 118.413 67.6878C118.245 67.2136 118.027 66.7543 117.77 66.3197C116.958 64.9565 116.033 64.2106 114.855 63.4698C111.293 61.2274 106.717 62.2498 102.714 67.999C100.389 71.3378 99.0381 75.2644 98.6818 79.3145C98.6719 79.4281 98.662 79.5466 98.6521 79.6602C97.7863 90.8918 101.452 100.232 101.819 101.378L101.824 101.373Z" fill="url(#paint2_linear_345_2107)"/>
<path d="M153.719 71.7773H140.672L108.567 143H122.223L129.288 126.513H164.97L172.065 143H185.923L153.719 71.7773ZM133.736 116.136L147.099 84.9648L160.507 116.136H133.736Z" fill="url(#paint3_linear_345_2107)"/>
<path d="M239.575 119.677C239.926 119.539 240.267 119.391 240.604 119.242C245.121 117.242 248.604 114.358 251.053 110.589C253.497 106.825 254.719 102.336 254.719 97.1101C254.719 91.8845 253.497 87.3751 251.053 83.5769C248.604 79.7787 245.121 76.8646 240.604 74.8297C236.087 72.7948 230.669 71.7773 224.351 71.7773H194.997V143H208.247V122.24H224.351C225.301 122.24 226.231 122.216 227.137 122.171L241.673 143H255.941L239.575 119.677ZM236.938 107.591C233.979 110.1 229.581 111.355 223.738 111.355H208.247V82.9694H223.738C229.581 82.9694 233.979 84.1894 236.938 86.6293C239.891 89.0742 241.371 92.5661 241.371 97.1101C241.371 101.654 239.891 105.082 236.938 107.591Z" fill="url(#paint4_linear_345_2107)"/>
<path d="M269.497 142.995V71.7725H282.747V142.995H269.497Z" fill="url(#paint5_linear_345_2107)"/>
<path d="M380.081 143H367.543L367.449 95.8111L343.998 134.86H338.091L314.649 96.4285V143H302.008V71.7773H312.912L341.222 118.971L369.072 71.7773H379.977L380.081 143Z" fill="url(#paint6_linear_345_2107)"/>
<path d="M434.401 71.7773H421.354L389.249 143H402.909L409.974 126.513H445.656L452.746 143H466.609L434.401 71.7773ZM414.422 116.136L427.781 84.9648L441.189 116.136H414.422Z" fill="url(#paint7_linear_345_2107)"/>
<path d="M530.106 71.7773L502.177 117.904V143H488.927V118.067L460.899 71.7773H475.069L495.978 106.425L517.059 71.7773H530.106Z" fill="url(#paint8_linear_345_2107)"/>
<path d="M537.75 142.995V71.7725H551V142.995H537.75Z" fill="url(#paint9_linear_345_2107)"/>
<path d="M290.882 48.386L290.134 51.531L289.998 50.8C290.27 50.8 290.491 50.885 290.661 51.055C290.831 51.2137 290.916 51.429 290.916 51.701C290.916 51.973 290.831 52.194 290.661 52.364C290.491 52.534 290.282 52.619 290.032 52.619C289.76 52.619 289.539 52.534 289.369 52.364C289.211 52.1827 289.131 51.9617 289.131 51.701C289.131 51.599 289.137 51.5083 289.148 51.429C289.16 51.3497 289.182 51.2533 289.216 51.14C289.25 51.0267 289.296 50.8907 289.352 50.732L290.066 48.386H290.882ZM293.772 48.386L293.024 51.531L292.888 50.8C293.16 50.8 293.381 50.885 293.551 51.055C293.721 51.2137 293.806 51.429 293.806 51.701C293.806 51.973 293.721 52.194 293.551 52.364C293.381 52.534 293.172 52.619 292.922 52.619C292.65 52.619 292.429 52.534 292.259 52.364C292.101 52.1827 292.021 51.9617 292.021 51.701C292.021 51.599 292.027 51.5083 292.038 51.429C292.05 51.3497 292.072 51.2533 292.106 51.14C292.14 51.0267 292.186 50.8907 292.242 50.732L292.956 48.386H293.772ZM301.454 61.102C299.935 61.102 298.739 60.6657 297.867 59.793C296.994 58.9203 296.558 57.6283 296.558 55.917V49.1H297.816V55.866C297.816 57.2713 298.133 58.3083 298.768 58.977C299.402 59.6457 300.298 59.98 301.454 59.98C302.621 59.98 303.522 59.6457 304.157 58.977C304.791 58.3083 305.109 57.2713 305.109 55.866V49.1H306.333V55.917C306.333 57.6283 305.896 58.9203 305.024 59.793C304.162 60.6657 302.972 61.102 301.454 61.102ZM314.424 51.99C315.15 51.99 315.784 52.1317 316.328 52.415C316.884 52.687 317.314 53.1063 317.62 53.673C317.938 54.2397 318.096 54.9537 318.096 55.815V61H316.889V55.934C316.889 54.9933 316.651 54.285 316.175 53.809C315.711 53.3217 315.053 53.078 314.203 53.078C313.569 53.078 313.013 53.2083 312.537 53.469C312.073 53.7183 311.71 54.0867 311.449 54.574C311.2 55.05 311.075 55.628 311.075 56.308V61H309.868V52.075H311.024V54.523L310.837 54.064C311.121 53.418 311.574 52.9137 312.197 52.551C312.821 52.177 313.563 51.99 314.424 51.99ZM325.806 61V52.075H326.962V54.506L326.843 54.081C327.092 53.401 327.512 52.8853 328.101 52.534C328.69 52.1713 329.421 51.99 330.294 51.99V53.163C330.249 53.163 330.203 53.163 330.158 53.163C330.113 53.1517 330.067 53.146 330.022 53.146C329.081 53.146 328.345 53.435 327.812 54.013C327.279 54.5797 327.013 55.39 327.013 56.444V61H325.806ZM336.204 61.085C335.275 61.085 334.459 60.8923 333.756 60.507C333.054 60.1103 332.504 59.572 332.107 58.892C331.711 58.2007 331.512 57.413 331.512 56.529C331.512 55.645 331.699 54.863 332.073 54.183C332.459 53.503 332.98 52.9703 333.637 52.585C334.306 52.1883 335.054 51.99 335.881 51.99C336.72 51.99 337.462 52.1827 338.108 52.568C338.766 52.942 339.281 53.4747 339.655 54.166C340.029 54.846 340.216 55.6337 340.216 56.529C340.216 56.5857 340.211 56.648 340.199 56.716C340.199 56.7727 340.199 56.835 340.199 56.903H332.43V56.002H339.553L339.077 56.359C339.077 55.713 338.936 55.1407 338.652 54.642C338.38 54.132 338.006 53.7353 337.53 53.452C337.054 53.1687 336.505 53.027 335.881 53.027C335.269 53.027 334.72 53.1687 334.232 53.452C333.745 53.7353 333.365 54.132 333.093 54.642C332.821 55.152 332.685 55.7357 332.685 56.393V56.58C332.685 57.26 332.833 57.8607 333.127 58.382C333.433 58.892 333.853 59.2943 334.385 59.589C334.929 59.8723 335.547 60.014 336.238 60.014C336.782 60.014 337.287 59.9177 337.751 59.725C338.227 59.5323 338.635 59.2377 338.975 58.841L339.655 59.623C339.259 60.099 338.76 60.4617 338.159 60.711C337.57 60.9603 336.918 61.085 336.204 61.085ZM333.059 50.681L335.252 48.573H336.476L338.669 50.681H337.547L335.388 48.879H336.34L334.181 50.681H333.059ZM344.802 61L340.841 52.075H342.099L345.737 60.354H345.142L348.831 52.075H350.021L346.043 61H344.802ZM355.263 61.085C354.334 61.085 353.518 60.8923 352.815 60.507C352.112 60.1103 351.563 59.572 351.166 58.892C350.769 58.2007 350.571 57.413 350.571 56.529C350.571 55.645 350.758 54.863 351.132 54.183C351.517 53.503 352.039 52.9703 352.696 52.585C353.365 52.1883 354.113 51.99 354.94 51.99C355.779 51.99 356.521 52.1827 357.167 52.568C357.824 52.942 358.34 53.4747 358.714 54.166C359.088 54.846 359.275 55.6337 359.275 56.529C359.275 56.5857 359.269 56.648 359.258 56.716C359.258 56.7727 359.258 56.835 359.258 56.903H351.489V56.002H358.612L358.136 56.359C358.136 55.713 357.994 55.1407 357.711 54.642C357.439 54.132 357.065 53.7353 356.589 53.452C356.113 53.1687 355.563 53.027 354.94 53.027C354.328 53.027 353.778 53.1687 353.291 53.452C352.804 53.7353 352.424 54.132 352.152 54.642C351.88 55.152 351.744 55.7357 351.744 56.393V56.58C351.744 57.26 351.891 57.8607 352.186 58.382C352.492 58.892 352.911 59.2943 353.444 59.589C353.988 59.8723 354.606 60.014 355.297 60.014C355.841 60.014 356.345 59.9177 356.81 59.725C357.286 59.5323 357.694 59.2377 358.034 58.841L358.714 59.623C358.317 60.099 357.819 60.4617 357.218 60.711C356.629 60.9603 355.977 61.085 355.263 61.085ZM361.001 63.482L361.749 60.337L361.885 61.068C361.624 61.068 361.403 60.983 361.222 60.813C361.052 60.643 360.967 60.422 360.967 60.15C360.967 59.878 361.052 59.657 361.222 59.487C361.403 59.317 361.618 59.232 361.868 59.232C362.128 59.232 362.338 59.3227 362.497 59.504C362.667 59.6853 362.752 59.9007 362.752 60.15C362.752 60.2407 362.746 60.3313 362.735 60.422C362.723 60.5127 362.701 60.6147 362.667 60.728C362.633 60.8413 362.587 60.9773 362.531 61.136L361.817 63.482H361.001ZM373.472 61.085C372.713 61.085 372.05 60.9433 371.483 60.66C370.917 60.3767 370.475 59.9517 370.157 59.385C369.851 58.8183 369.698 58.11 369.698 57.26V52.075H370.905V57.124C370.905 58.076 371.138 58.7957 371.602 59.283C372.078 59.759 372.741 59.997 373.591 59.997C374.215 59.997 374.753 59.8723 375.206 59.623C375.671 59.3623 376.022 58.9883 376.26 58.501C376.51 58.0137 376.634 57.43 376.634 56.75V52.075H377.841V61H376.685V58.552L376.872 58.994C376.589 59.6513 376.147 60.167 375.546 60.541C374.957 60.9037 374.266 61.085 373.472 61.085ZM385.761 51.99C386.487 51.99 387.121 52.1317 387.665 52.415C388.221 52.687 388.651 53.1063 388.957 53.673C389.275 54.2397 389.433 54.9537 389.433 55.815V61H388.226V55.934C388.226 54.9933 387.988 54.285 387.512 53.809C387.048 53.3217 386.39 53.078 385.54 53.078C384.906 53.078 384.35 53.2083 383.874 53.469C383.41 53.7183 383.047 54.0867 382.786 54.574C382.537 55.05 382.412 55.628 382.412 56.308V61H381.205V52.075H382.361V54.523L382.174 54.064C382.458 53.418 382.911 52.9137 383.534 52.551C384.158 52.177 384.9 51.99 385.761 51.99ZM401.75 61.085C400.979 61.085 400.282 60.9093 399.659 60.558C399.036 60.1953 398.537 59.6797 398.163 59.011C397.8 58.331 397.619 57.5037 397.619 56.529C397.619 55.5543 397.8 54.7327 398.163 54.064C398.526 53.384 399.019 52.8683 399.642 52.517C400.265 52.1657 400.968 51.99 401.75 51.99C402.6 51.99 403.359 52.1827 404.028 52.568C404.708 52.942 405.241 53.4747 405.626 54.166C406.011 54.846 406.204 55.6337 406.204 56.529C406.204 57.4357 406.011 58.229 405.626 58.909C405.241 59.589 404.708 60.1217 404.028 60.507C403.359 60.8923 402.6 61.085 401.75 61.085ZM397.143 64.298V52.075H398.299V54.761L398.18 56.546L398.35 58.348V64.298H397.143ZM401.665 60.014C402.3 60.014 402.866 59.8723 403.365 59.589C403.864 59.2943 404.26 58.8863 404.555 58.365C404.85 57.8323 404.997 57.2203 404.997 56.529C404.997 55.8377 404.85 55.2313 404.555 54.71C404.26 54.1887 403.864 53.7807 403.365 53.486C402.866 53.1913 402.3 53.044 401.665 53.044C401.03 53.044 400.458 53.1913 399.948 53.486C399.449 53.7807 399.053 54.1887 398.758 54.71C398.475 55.2313 398.333 55.8377 398.333 56.529C398.333 57.2203 398.475 57.8323 398.758 58.365C399.053 58.8863 399.449 59.2943 399.948 59.589C400.458 59.8723 401.03 60.014 401.665 60.014ZM408.664 61V52.075H409.82V54.506L409.701 54.081C409.951 53.401 410.37 52.8853 410.959 52.534C411.549 52.1713 412.28 51.99 413.152 51.99V53.163C413.107 53.163 413.062 53.163 413.016 53.163C412.971 53.1517 412.926 53.146 412.88 53.146C411.94 53.146 411.203 53.435 410.67 54.013C410.138 54.5797 409.871 55.39 409.871 56.444V61H408.664ZM418.91 61.085C418.048 61.085 417.272 60.8923 416.581 60.507C415.901 60.1103 415.362 59.572 414.966 58.892C414.569 58.2007 414.371 57.413 414.371 56.529C414.371 55.6337 414.569 54.846 414.966 54.166C415.362 53.486 415.901 52.9533 416.581 52.568C417.261 52.1827 418.037 51.99 418.91 51.99C419.794 51.99 420.576 52.1827 421.256 52.568C421.947 52.9533 422.485 53.486 422.871 54.166C423.267 54.846 423.466 55.6337 423.466 56.529C423.466 57.413 423.267 58.2007 422.871 58.892C422.485 59.572 421.947 60.1103 421.256 60.507C420.564 60.8923 419.782 61.085 418.91 61.085ZM418.91 60.014C419.556 60.014 420.128 59.8723 420.627 59.589C421.125 59.2943 421.516 58.8863 421.8 58.365C422.094 57.8323 422.242 57.2203 422.242 56.529C422.242 55.8263 422.094 55.2143 421.8 54.693C421.516 54.1717 421.125 53.7693 420.627 53.486C420.128 53.1913 419.561 53.044 418.927 53.044C418.292 53.044 417.725 53.1913 417.227 53.486C416.728 53.7693 416.331 54.1717 416.037 54.693C415.742 55.2143 415.595 55.8263 415.595 56.529C415.595 57.2203 415.742 57.8323 416.037 58.365C416.331 58.8863 416.728 59.2943 417.227 59.589C417.725 59.8723 418.286 60.014 418.91 60.014ZM424.604 64.383C424.241 64.383 423.896 64.332 423.567 64.23C423.227 64.1393 422.944 63.9977 422.717 63.805L423.142 62.887C423.505 63.193 423.969 63.346 424.536 63.346C425.012 63.346 425.375 63.2043 425.624 62.921C425.885 62.6377 426.015 62.2183 426.015 61.663V52.075H427.222V61.663C427.222 62.4903 426.995 63.1477 426.542 63.635C426.1 64.1337 425.454 64.383 424.604 64.383ZM426.627 50.103C426.378 50.103 426.168 50.018 425.998 49.848C425.828 49.678 425.743 49.474 425.743 49.236C425.743 48.998 425.828 48.7997 425.998 48.641C426.168 48.471 426.378 48.386 426.627 48.386C426.876 48.386 427.086 48.4653 427.256 48.624C427.426 48.7827 427.511 48.981 427.511 49.219C427.511 49.4683 427.426 49.678 427.256 49.848C427.097 50.018 426.888 50.103 426.627 50.103ZM434.386 61.085C433.457 61.085 432.641 60.8923 431.938 60.507C431.235 60.1103 430.686 59.572 430.289 58.892C429.892 58.2007 429.694 57.413 429.694 56.529C429.694 55.645 429.881 54.863 430.255 54.183C430.64 53.503 431.162 52.9703 431.819 52.585C432.488 52.1883 433.236 51.99 434.063 51.99C434.902 51.99 435.644 52.1827 436.29 52.568C436.947 52.942 437.463 53.4747 437.837 54.166C438.211 54.846 438.398 55.6337 438.398 56.529C438.398 56.5857 438.392 56.648 438.381 56.716C438.381 56.7727 438.381 56.835 438.381 56.903H430.612V56.002H437.735L437.259 56.359C437.259 55.713 437.117 55.1407 436.834 54.642C436.562 54.132 436.188 53.7353 435.712 53.452C435.236 53.1687 434.686 53.027 434.063 53.027C433.451 53.027 432.901 53.1687 432.414 53.452C431.927 53.7353 431.547 54.132 431.275 54.642C431.003 55.152 430.867 55.7357 430.867 56.393V56.58C430.867 57.26 431.014 57.8607 431.309 58.382C431.615 58.892 432.034 59.2943 432.567 59.589C433.111 59.8723 433.729 60.014 434.42 60.014C434.964 60.014 435.468 59.9177 435.933 59.725C436.409 59.5323 436.817 59.2377 437.157 58.841L437.837 59.623C437.44 60.099 436.942 60.4617 436.341 60.711C435.752 60.9603 435.1 61.085 434.386 61.085ZM443.677 61.085C442.838 61.085 442.192 60.8583 441.739 60.405C441.285 59.9517 441.059 59.3113 441.059 58.484V50.103H442.266V58.416C442.266 58.9373 442.396 59.3397 442.657 59.623C442.929 59.9063 443.314 60.048 443.813 60.048C444.345 60.048 444.787 59.895 445.139 59.589L445.564 60.456C445.326 60.6713 445.037 60.83 444.697 60.932C444.368 61.034 444.028 61.085 443.677 61.085ZM439.461 53.078V52.075H444.986V53.078H439.461ZM447.196 63.482L447.944 60.337L448.08 61.068C447.819 61.068 447.598 60.983 447.417 60.813C447.247 60.643 447.162 60.422 447.162 60.15C447.162 59.878 447.247 59.657 447.417 59.487C447.598 59.317 447.814 59.232 448.063 59.232C448.324 59.232 448.533 59.3227 448.692 59.504C448.862 59.6853 448.947 59.9007 448.947 60.15C448.947 60.2407 448.941 60.3313 448.93 60.422C448.919 60.5127 448.896 60.6147 448.862 60.728C448.828 60.8413 448.783 60.9773 448.726 61.136L448.012 63.482H447.196ZM459.668 61.085C458.908 61.085 458.245 60.9433 457.679 60.66C457.112 60.3767 456.67 59.9517 456.353 59.385C456.047 58.8183 455.894 58.11 455.894 57.26V52.075H457.101V57.124C457.101 58.076 457.333 58.7957 457.798 59.283C458.274 59.759 458.937 59.997 459.787 59.997C460.41 59.997 460.948 59.8723 461.402 59.623C461.866 59.3623 462.218 58.9883 462.456 58.501C462.705 58.0137 462.83 57.43 462.83 56.75V52.075H464.037V61H462.881V58.552L463.068 58.994C462.784 59.6513 462.342 60.167 461.742 60.541C461.152 60.9037 460.461 61.085 459.668 61.085ZM471.957 51.99C472.682 51.99 473.317 52.1317 473.861 52.415C474.416 52.687 474.847 53.1063 475.153 53.673C475.47 54.2397 475.629 54.9537 475.629 55.815V61H474.422V55.934C474.422 54.9933 474.184 54.285 473.708 53.809C473.243 53.3217 472.586 53.078 471.736 53.078C471.101 53.078 470.546 53.2083 470.07 53.469C469.605 53.7183 469.242 54.0867 468.982 54.574C468.732 55.05 468.608 55.628 468.608 56.308V61H467.401V52.075H468.557V54.523L468.37 54.064C468.653 53.418 469.106 52.9137 469.73 52.551C470.353 52.177 471.095 51.99 471.957 51.99ZM482.68 61.085C481.751 61.085 480.935 60.8923 480.232 60.507C479.529 60.1103 478.98 59.572 478.583 58.892C478.186 58.2007 477.988 57.413 477.988 56.529C477.988 55.645 478.175 54.863 478.549 54.183C478.934 53.503 479.456 52.9703 480.113 52.585C480.782 52.1883 481.53 51.99 482.357 51.99C483.196 51.99 483.938 52.1827 484.584 52.568C485.241 52.942 485.757 53.4747 486.131 54.166C486.505 54.846 486.692 55.6337 486.692 56.529C486.692 56.5857 486.686 56.648 486.675 56.716C486.675 56.7727 486.675 56.835 486.675 56.903H478.906V56.002H486.029L485.553 56.359C485.553 55.713 485.411 55.1407 485.128 54.642C484.856 54.132 484.482 53.7353 484.006 53.452C483.53 53.1687 482.98 53.027 482.357 53.027C481.745 53.027 481.195 53.1687 480.708 53.452C480.221 53.7353 479.841 54.132 479.569 54.642C479.297 55.152 479.161 55.7357 479.161 56.393V56.58C479.161 57.26 479.308 57.8607 479.603 58.382C479.909 58.892 480.328 59.2943 480.861 59.589C481.405 59.8723 482.023 60.014 482.714 60.014C483.258 60.014 483.762 59.9177 484.227 59.725C484.703 59.5323 485.111 59.2377 485.451 58.841L486.131 59.623C485.734 60.099 485.236 60.4617 484.635 60.711C484.046 60.9603 483.394 61.085 482.68 61.085ZM493.598 61V52.075H494.754V54.506L494.635 54.081C494.884 53.401 495.304 52.8853 495.893 52.534C496.482 52.1713 497.213 51.99 498.086 51.99V53.163C498.041 53.163 497.995 53.163 497.95 53.163C497.905 53.1517 497.859 53.146 497.814 53.146C496.873 53.146 496.137 53.435 495.604 54.013C495.071 54.5797 494.805 55.39 494.805 56.444V61H493.598ZM503.996 61.085C503.067 61.085 502.251 60.8923 501.548 60.507C500.846 60.1103 500.296 59.572 499.899 58.892C499.503 58.2007 499.304 57.413 499.304 56.529C499.304 55.645 499.491 54.863 499.865 54.183C500.251 53.503 500.772 52.9703 501.429 52.585C502.098 52.1883 502.846 51.99 503.673 51.99C504.512 51.99 505.254 52.1827 505.9 52.568C506.558 52.942 507.073 53.4747 507.447 54.166C507.821 54.846 508.008 55.6337 508.008 56.529C508.008 56.5857 508.003 56.648 507.991 56.716C507.991 56.7727 507.991 56.835 507.991 56.903H500.222V56.002H507.345L506.869 56.359C506.869 55.713 506.728 55.1407 506.444 54.642C506.172 54.132 505.798 53.7353 505.322 53.452C504.846 53.1687 504.297 53.027 503.673 53.027C503.061 53.027 502.512 53.1687 502.024 53.452C501.537 53.7353 501.157 54.132 500.885 54.642C500.613 55.152 500.477 55.7357 500.477 56.393V56.58C500.477 57.26 500.625 57.8607 500.919 58.382C501.225 58.892 501.645 59.2943 502.177 59.589C502.721 59.8723 503.339 60.014 504.03 60.014C504.574 60.014 505.079 59.9177 505.543 59.725C506.019 59.5323 506.427 59.2377 506.767 58.841L507.447 59.623C507.051 60.099 506.552 60.4617 505.951 60.711C505.362 60.9603 504.71 61.085 503.996 61.085ZM502.551 50.681L504.88 48.573H506.495L503.741 50.681H502.551ZM515.809 61V59.028L515.758 58.705V55.407C515.758 54.6477 515.543 54.064 515.112 53.656C514.693 53.248 514.064 53.044 513.225 53.044C512.647 53.044 512.097 53.1403 511.576 53.333C511.055 53.5257 510.613 53.7807 510.25 54.098L509.706 53.197C510.159 52.8117 510.703 52.517 511.338 52.313C511.973 52.0977 512.641 51.99 513.344 51.99C514.5 51.99 515.39 52.279 516.013 52.857C516.648 53.4237 516.965 54.2907 516.965 55.458V61H515.809ZM512.732 61.085C512.063 61.085 511.48 60.9773 510.981 60.762C510.494 60.5353 510.12 60.2293 509.859 59.844C509.598 59.4473 509.468 58.994 509.468 58.484C509.468 58.0193 509.576 57.6 509.791 57.226C510.018 56.8407 510.38 56.5347 510.879 56.308C511.389 56.07 512.069 55.951 512.919 55.951H515.996V56.852H512.953C512.092 56.852 511.491 57.005 511.151 57.311C510.822 57.617 510.658 57.9967 510.658 58.45C510.658 58.96 510.856 59.368 511.253 59.674C511.65 59.98 512.205 60.133 512.919 60.133C513.599 60.133 514.183 59.98 514.67 59.674C515.169 59.3567 515.531 58.9033 515.758 58.314L516.03 59.147C515.803 59.7363 515.407 60.2067 514.84 60.558C514.285 60.9093 513.582 61.085 512.732 61.085ZM520.243 61V48.386H521.45V61H520.243ZM524.809 61V52.075H526.016V61H524.809ZM525.421 50.103C525.172 50.103 524.962 50.018 524.792 49.848C524.622 49.678 524.537 49.474 524.537 49.236C524.537 48.998 524.622 48.7997 524.792 48.641C524.962 48.471 525.172 48.386 525.421 48.386C525.67 48.386 525.88 48.4653 526.05 48.624C526.22 48.7827 526.305 48.981 526.305 49.219C526.305 49.4683 526.22 49.678 526.05 49.848C525.891 50.018 525.682 50.103 525.421 50.103ZM532.196 61.085C531.358 61.085 530.712 60.8583 530.258 60.405C529.805 59.9517 529.578 59.3113 529.578 58.484V50.103H530.785V58.416C530.785 58.9373 530.916 59.3397 531.176 59.623C531.448 59.9063 531.834 60.048 532.332 60.048C532.865 60.048 533.307 59.895 533.658 59.589L534.083 60.456C533.845 60.6713 533.556 60.83 533.216 60.932C532.888 61.034 532.548 61.085 532.196 61.085ZM527.98 53.078V52.075H533.505V53.078H527.98ZM539.756 61.085C538.827 61.085 538.011 60.8923 537.308 60.507C536.605 60.1103 536.056 59.572 535.659 58.892C535.262 58.2007 535.064 57.413 535.064 56.529C535.064 55.645 535.251 54.863 535.625 54.183C536.01 53.503 536.532 52.9703 537.189 52.585C537.858 52.1883 538.606 51.99 539.433 51.99C540.272 51.99 541.014 52.1827 541.66 52.568C542.317 52.942 542.833 53.4747 543.207 54.166C543.581 54.846 543.768 55.6337 543.768 56.529C543.768 56.5857 543.762 56.648 543.751 56.716C543.751 56.7727 543.751 56.835 543.751 56.903H535.982V56.002H543.105L542.629 56.359C542.629 55.713 542.487 55.1407 542.204 54.642C541.932 54.132 541.558 53.7353 541.082 53.452C540.606 53.1687 540.056 53.027 539.433 53.027C538.821 53.027 538.271 53.1687 537.784 53.452C537.297 53.7353 536.917 54.132 536.645 54.642C536.373 55.152 536.237 55.7357 536.237 56.393V56.58C536.237 57.26 536.384 57.8607 536.679 58.382C536.985 58.892 537.404 59.2943 537.937 59.589C538.481 59.8723 539.099 60.014 539.79 60.014C540.334 60.014 540.838 59.9177 541.303 59.725C541.779 59.5323 542.187 59.2377 542.527 58.841L543.207 59.623C542.81 60.099 542.312 60.4617 541.711 60.711C541.122 60.9603 540.47 61.085 539.756 61.085ZM538.311 50.681L540.64 48.573H542.255L539.501 50.681H538.311ZM545.461 52.534L546.209 49.406L546.345 50.12C546.084 50.12 545.863 50.0407 545.682 49.882C545.512 49.712 545.427 49.491 545.427 49.219C545.427 48.947 545.512 48.726 545.682 48.556C545.863 48.386 546.078 48.301 546.328 48.301C546.588 48.301 546.798 48.3917 546.957 48.573C547.127 48.743 547.212 48.9583 547.212 49.219C547.212 49.3097 547.206 49.4003 547.195 49.491C547.183 49.5817 547.161 49.6837 547.127 49.797C547.104 49.899 547.064 50.0293 547.008 50.188L546.277 52.534H545.461ZM548.351 52.534L549.099 49.406L549.235 50.12C548.974 50.12 548.753 50.0407 548.572 49.882C548.402 49.712 548.317 49.491 548.317 49.219C548.317 48.947 548.402 48.726 548.572 48.556C548.753 48.386 548.968 48.301 549.218 48.301C549.478 48.301 549.688 48.3917 549.847 48.573C550.017 48.743 550.102 48.9583 550.102 49.219C550.102 49.3097 550.096 49.4003 550.085 49.491C550.073 49.5817 550.051 49.6837 550.017 49.797C549.994 49.899 549.954 50.0293 549.898 50.188L549.167 52.534H548.351Z" fill="#4D4D4D"/>
<defs>
<linearGradient id="paint0_linear_345_2107" x1="32.8197" y1="104.42" x2="577.523" y2="290.043" gradientUnits="userSpaceOnUse">
<stop stop-color="#54E0E9"/>
<stop offset="0.43" stop-color="#816CFF"/>
<stop offset="0.95" stop-color="#B163FF"/>
</linearGradient>
<linearGradient id="paint1_linear_345_2107" x1="61.338" y1="20.7472" x2="606.036" y2="206.365" gradientUnits="userSpaceOnUse">
<stop stop-color="#54E0E9"/>
<stop offset="0.43" stop-color="#816CFF"/>
<stop offset="0.95" stop-color="#B163FF"/>
</linearGradient>
<linearGradient id="paint2_linear_345_2107" x1="48.6024" y1="58.1059" x2="593.306" y2="243.728" gradientUnits="userSpaceOnUse">
<stop stop-color="#54E0E9"/>
<stop offset="0.43" stop-color="#816CFF"/>
<stop offset="0.95" stop-color="#B163FF"/>
</linearGradient>
<linearGradient id="paint3_linear_345_2107" x1="42.1164" y1="77.1511" x2="586.815" y2="262.773" gradientUnits="userSpaceOnUse">
<stop stop-color="#54E0E9"/>
<stop offset="0.43" stop-color="#816CFF"/>
<stop offset="0.95" stop-color="#B163FF"/>
</linearGradient>
<linearGradient id="paint4_linear_345_2107" x1="50.6613" y1="52.0801" x2="595.36" y2="237.697" gradientUnits="userSpaceOnUse">
<stop stop-color="#54E0E9"/>
<stop offset="0.43" stop-color="#816CFF"/>
<stop offset="0.95" stop-color="#B163FF"/>
</linearGradient>
<linearGradient id="paint5_linear_345_2107" x1="57.1519" y1="33.0201" x2="601.855" y2="218.642" gradientUnits="userSpaceOnUse">
<stop stop-color="#54E0E9"/>
<stop offset="0.43" stop-color="#816CFF"/>
<stop offset="0.95" stop-color="#B163FF"/>
</linearGradient>
<linearGradient id="paint6_linear_345_2107" x1="63.8808" y1="13.2734" x2="608.579" y2="198.896" gradientUnits="userSpaceOnUse">
<stop stop-color="#54E0E9"/>
<stop offset="0.43" stop-color="#816CFF"/>
<stop offset="0.95" stop-color="#B163FF"/>
</linearGradient>
<linearGradient id="paint7_linear_345_2107" x1="71.2285" y1="-8.28591" x2="615.927" y2="177.336" gradientUnits="userSpaceOnUse">
<stop stop-color="#54E0E9"/>
<stop offset="0.43" stop-color="#816CFF"/>
<stop offset="0.95" stop-color="#B163FF"/>
</linearGradient>
<linearGradient id="paint8_linear_345_2107" x1="81.3606" y1="-38.0194" x2="626.064" y2="147.598" gradientUnits="userSpaceOnUse">
<stop stop-color="#54E0E9"/>
<stop offset="0.43" stop-color="#816CFF"/>
<stop offset="0.95" stop-color="#B163FF"/>
</linearGradient>
<linearGradient id="paint9_linear_345_2107" x1="84.9767" y1="-48.6336" x2="629.68" y2="136.989" gradientUnits="userSpaceOnUse">
<stop stop-color="#54E0E9"/>
<stop offset="0.43" stop-color="#816CFF"/>
<stop offset="0.95" stop-color="#B163FF"/>
</linearGradient>
</defs>
</svg>
