<?xml version="1.0" encoding="UTF-8"?>
<svg version="1.1" xmlns="http://www.w3.org/2000/svg" width="115" height="120">
<path d="M0 0 C37.95 0 75.9 0 115 0 C115 39.6 115 79.2 115 120 C77.05 120 39.1 120 0 120 C0 80.4 0 40.8 0 0 Z " fill="#454545" transform="translate(0,0)"/>
<path d="M0 0 C-0.99 0.33 -1.98 0.66 -3 1 C-3.66 0.67 -4.32 0.34 -5 0 C-7.76546142 -0.17794636 -10.48263275 -0.27761722 -13.25 -0.3125 C-14.37728516 -0.35600586 -14.37728516 -0.35600586 -15.52734375 -0.40039062 C-20.84666672 -0.46073199 -23.76356143 0.51529038 -28 4 C-32.60639798 8.9798897 -33.10735272 12.48229721 -33.1328125 19 C-32.99327569 21.10126013 -32.56916864 22.97628927 -32 25 C-22.55498705 25.92901767 -16.68451218 22.12300812 -9 17 C-11.72564471 23.80623419 -19.57877072 29.67005473 -25.625 33.625 C-29.87591951 35.3568561 -33.48689067 36.14095461 -38 35 C-41.15388045 32.61590554 -42.75241573 29.74275282 -44 26 C-44.85898247 17.25064998 -44.24785158 10.23009092 -39 3 C-26.73734197 -10.83144157 -14.48462852 -8.07677721 0 0 Z " fill="#F5F5F5" transform="translate(56,52)"/>
<path d="M0 0 C2.5 1.875 2.5 1.875 4 4 C4.09248045 7.60673743 3.10028972 8.88299533 0.75 11.625 C-1.76920518 13.8006772 -3.99354333 15.57588894 -7 17 C-7.99 16.67 -8.98 16.34 -10 16 C-7.66666667 13.66666667 -5.33333333 11.33333333 -3 9 C-3 8.01 -3 7.02 -3 6 C-8.48667542 5.49466173 -8.48667542 5.49466173 -13.375 7.5 C-15.59623761 10.91728863 -16.20148802 14.00744011 -17 18 C-22.83757339 13.69863014 -22.83757339 13.69863014 -24 10 C-24.4375 6.5 -24.4375 6.5 -24 3 C-17.07893115 -4.3165585 -8.63492603 -4.56184771 0 0 Z " fill="#F5F5F5" transform="translate(93,10)"/>
<path d="M0 0 C2.875 1.5 2.875 1.5 5 4 C5.55613536 6.90107722 5.33955349 8.99252622 5 12 C4.34 12.66 3.68 13.32 3 14 C2.34 11.69 1.68 9.38 1 7 C-1.33165034 6.66501699 -1.33165034 6.66501699 -4 7 C-6.79035429 9.2477854 -7.85910005 10.57730016 -9 14 C-9.07973476 15.33525717 -9.10771338 16.67412083 -9.09765625 18.01171875 C-9.09443359 18.76904297 -9.09121094 19.52636719 -9.08789062 20.30664062 C-9.07951172 21.09232422 -9.07113281 21.87800781 -9.0625 22.6875 C-9.05798828 23.48478516 -9.05347656 24.28207031 -9.04882812 25.10351562 C-9.0370585 27.06904257 -9.01912348 29.03453085 -9 31 C-11.84392661 29.57803669 -12.36834607 27.4791604 -13.38671875 24.5859375 C-14.71503213 18.98502377 -15.26232197 12.4179795 -13.23828125 6.9375 C-9.89201416 1.64695915 -6.28098288 -0.89728327 0 0 Z " fill="#F1F1F1" transform="translate(70,25)"/>
<path d="M0 0 C7.23809524 -0.36190476 7.23809524 -0.36190476 10.5 1.1875 C12 3 12 3 12.25 5.6875 C12.1675 6.450625 12.085 7.21375 12 8 C11.01 8.33 10.02 8.66 9 9 C9.66 10.65 10.32 12.3 11 14 C9.68 13.34 8.36 12.68 7 12 C7 11.34 7 10.68 7 10 C5.68 10 4.36 10 3 10 C3 11.32 3 12.64 3 14 C2.01 14 1.02 14 0 14 C0 9.38 0 4.76 0 0 Z " fill="#E3E3E3" transform="translate(28,93)"/>
<path d="M0 0 C0.66 0 1.32 0 2 0 C2 4.62 2 9.24 2 14 C1.01 14 0.02 14 -1 14 C-1.33 12.35 -1.66 10.7 -2 9 C-3.32 10.32 -4.64 11.64 -6 13 C-7.32 11.02 -8.64 9.04 -10 7 C-10.33 9.31 -10.66 11.62 -11 14 C-11.66 14 -12.32 14 -13 14 C-13 9.71 -13 5.42 -13 1 C-12.01 1 -11.02 1 -10 1 C-8.68 3.31 -7.36 5.62 -6 8 C-3.87961365 5.38485683 -1.86908256 2.80362384 0 0 Z " fill="#D5D5D5" transform="translate(62,93)"/>
<path d="M0 0 C1.32 0 2.64 0 4 0 C4.83790789 1.78953185 5.67019396 3.58169695 6.5 5.375 C6.9640625 6.37273437 7.428125 7.37046875 7.90625 8.3984375 C9 11 9 11 9 13 C8.01 12.67 7.02 12.34 6 12 C6 11.34 6 10.68 6 10 C3.36 10 0.72 10 -2 10 C-2 10.99 -2 11.98 -2 13 C-2.99 13 -3.98 13 -5 13 C-3.58192622 8.52761347 -1.88695626 4.28853694 0 0 Z " fill="#F2F2F2" transform="translate(71,94)"/>
<path d="M0 0 C1.32 0 2.64 0 4 0 C4.83790789 1.78953185 5.67019396 3.58169695 6.5 5.375 C6.9640625 6.37273437 7.428125 7.37046875 7.90625 8.3984375 C9 11 9 11 9 13 C8.01 12.67 7.02 12.34 6 12 C6 11.34 6 10.68 6 10 C3.36 10 0.72 10 -2 10 C-2 10.99 -2 11.98 -2 13 C-2.99 13 -3.98 13 -5 13 C-3.58192622 8.52761347 -1.88695626 4.28853694 0 0 Z " fill="#BBBBBB" transform="translate(17,94)"/>
<path d="M0 0 C0.99 0 1.98 0 3 0 C4.6875 2.5 4.6875 2.5 6 5 C6.61875 4.175 7.2375 3.35 7.875 2.5 C8.57625 1.675 9.2775 0.85 10 0 C10.66 0 11.32 0 12 0 C10.87548273 2.9719385 9.77706209 5.33440687 8 8 C7.61500109 9.65549531 7.27206865 11.3222433 7 13 C6.34 13 5.68 13 5 13 C4.731875 11.96875 4.46375 10.9375 4.1875 9.875 C3.19001103 6.3514958 1.7338102 3.23119173 0 0 Z " fill="#F2F2F2" transform="translate(80,94)"/>
<path d="M0 0 C1.32 0 2.64 0 4 0 C4.66 1.65 5.32 3.3 6 5 C5.34 5 4.68 5 4 5 C4.33 5.99 4.66 6.98 5 8 C3.02 8 1.04 8 -1 8 C-2.2077558 4.37673261 -1.54311128 3.35853631 0 0 Z " fill="#B8B8B8" transform="translate(71,94)"/>
<path d="M0 0 C0.66 0 1.32 0 2 0 C2.66 2.31 3.32 4.62 4 7 C3.01 6.67 2.02 6.34 1 6 C1 5.34 1 4.68 1 4 C-1.64 4 -4.28 4 -7 4 C-7 4.99 -7 5.98 -7 7 C-7.99 7 -8.98 7 -10 7 C-9.34 5.02 -8.68 3.04 -8 1 C-5.36 1.33 -2.72 1.66 0 2 C0 1.34 0 0.68 0 0 Z " fill="#F3F3F3" transform="translate(22,100)"/>
<path d="M0 0 C0.99 0 1.98 0 3 0 C3 4.62 3 9.24 3 14 C2.01 14 1.02 14 0 14 C0 9.38 0 4.76 0 0 Z " fill="#E2E2E2" transform="translate(94,93)"/>
<path d="M0 0 C0.66 0 1.32 0 2 0 C2 4.62 2 9.24 2 14 C1.34 14 0.68 14 0 14 C0 11.36 0 8.72 0 6 C-0.99 6 -1.98 6 -3 6 C-1.125 1.125 -1.125 1.125 0 0 Z " fill="#EDEDED" transform="translate(62,93)"/>
<path d="M0 0 C0.99 0 1.98 0 3 0 C3.66 1.65 4.32 3.3 5 5 C4.01 5.495 4.01 5.495 3 6 C2.59270772 8.32156597 2.25561323 10.6568787 2 13 C1.34 13 0.68 13 0 13 C0 8.71 0 4.42 0 0 Z " fill="#FAFAFA" transform="translate(49,94)"/>
<path d="M0 0 C1.65 0 3.3 0 5 0 C5.5625 1.9375 5.5625 1.9375 6 4 C5 5 5 5 2.4375 5.0625 C1.2309375 5.0315625 1.2309375 5.0315625 0 5 C0 3.35 0 1.7 0 0 Z " fill="#444444" transform="translate(31,96)"/>
<path d="M0 0 C0 1.65 0 3.3 0 5 C-0.99 4.67 -1.98 4.34 -3 4 C-3.33 3.01 -3.66 2.02 -4 1 C-5.65 0.67 -7.3 0.34 -9 0 C-9 -0.33 -9 -0.66 -9 -1 C-5.22102349 -2.0497157 -3.35080929 -2.10976881 0 0 Z " fill="#D5D5D5" transform="translate(40,96)"/>
<path d="M0 0 C0.33 1.32 0.66 2.64 1 4 C0.34 4 -0.32 4 -1 4 C-0.34 5.65 0.32 7.3 1 9 C-0.32 8.34 -1.64 7.68 -3 7 C-2.67 5.35 -2.34 3.7 -2 2 C-1.34 2 -0.68 2 0 2 C0 1.34 0 0.68 0 0 Z " fill="#F1F1F1" transform="translate(38,98)"/>
<path d="M0 0 C0.99 0 1.98 0 3 0 C3.99 1.98 4.98 3.96 6 6 C4.125 5.8125 4.125 5.8125 2 5 C0.75 2.4375 0.75 2.4375 0 0 Z " fill="#EAEAEA" transform="translate(80,94)"/>
</svg>
