<?xml version="1.0" encoding="UTF-8"?>
<svg version="1.1" xmlns="http://www.w3.org/2000/svg" width="106" height="112">
<path d="M0 0 C34.98 0 69.96 0 106 0 C106 36.96 106 73.92 106 112 C71.02 112 36.04 112 0 112 C0 75.04 0 38.08 0 0 Z " fill="#444444" transform="translate(0,0)"/>
<path d="M0 0 C2.89923566 1.43594219 5.68306157 2.94558597 8.4375 4.640625 C5.11396094 5.74847135 4.64739493 5.48238066 1.4375 4.640625 C-6.08048207 3.9925231 -12.84213031 3.49396716 -19.078125 8.2109375 C-23.34265961 12.31835768 -24.40492876 16.43462763 -24.8125 22.140625 C-24.7361389 25.53691072 -24.7361389 25.53691072 -23.625 28.140625 C-21.18865675 29.912511 -20.38331423 29.87277922 -17.4375 29.703125 C-10.51570429 28.60783269 -5.02429207 24.83822699 0.4375 20.640625 C-3.47907347 29.47249817 -13.11271079 36.4157304 -21.5625 40.640625 C-25.15644951 41.03995272 -27.06625503 40.91759894 -30.25 39.140625 C-34.06007572 35.02162422 -35.32417025 30.78559276 -35.9375 25.265625 C-35.01365228 16.335097 -32.41266417 8.79922584 -25.5078125 2.87890625 C-17.64560906 -2.65041387 -8.97460779 -3.42452139 0 0 Z " fill="#F6F6F6" transform="translate(43.5625,53.359375)"/>
<path d="M0 0 C3.60603351 1.57437333 5.18033067 2.54772582 6.84375 6.19140625 C6.42551959 10.37371035 4.5442446 12.59188986 1.53125 15.31640625 C-1.09375 17.25390625 -1.09375 17.25390625 -3.46875 18.31640625 C-4.45875 17.98640625 -5.44875 17.65640625 -6.46875 17.31640625 C-5.8190625 16.61064453 -5.8190625 16.61064453 -5.15625 15.890625 C-4.599375 15.26800781 -4.0425 14.64539062 -3.46875 14.00390625 C-2.911875 13.38902344 -2.355 12.77414063 -1.78125 12.140625 C-0.17673502 10.2850929 -0.17673502 10.2850929 -0.46875 7.31640625 C-4.04067637 6.98413403 -6.03664828 7.0807144 -9.21875 8.81640625 C-12.26810252 12.20457571 -12.65243853 14.86379825 -13.46875 19.31640625 C-17.70532158 17.80334497 -19.4614707 15.25662117 -21.46875 11.31640625 C-21.53125 7.69140625 -21.53125 7.69140625 -20.46875 4.31640625 C-14.57202662 -1.4291191 -7.8806505 -2.18214215 0 0 Z " fill="#F5F5F5" transform="translate(85.46875,14.68359375)"/>
<path d="M0 0 C2.4375 1.6875 2.4375 1.6875 4 4 C4.375 7.125 4.375 7.125 4 10 C3.34 10.66 2.68 11.32 2 12 C1.6596875 10.7934375 1.6596875 10.7934375 1.3125 9.5625 C0.24032633 6.80999537 0.24032633 6.80999537 -2.375 5.9375 C-5.12949903 5.74263292 -5.12949903 5.74263292 -7.25 7.75 C-9.70269913 10.90347031 -10.12514023 13.35522725 -10.09765625 17.23046875 C-10.09443359 18.03291016 -10.09121094 18.83535156 -10.08789062 19.66210938 C-10.07951172 20.49548828 -10.07113281 21.32886719 -10.0625 22.1875 C-10.05798828 23.03248047 -10.05347656 23.87746094 -10.04882812 24.74804688 C-10.03705403 26.83206155 -10.0191189 28.91603977 -10 31 C-15.08664762 24.98850736 -15.44146687 18.66842216 -15.3203125 11.0703125 C-14.87474803 6.79941401 -13.9331431 5.09609549 -11 2 C-10.401875 1.360625 -9.80375 0.72125 -9.1875 0.0625 C-5.81461879 -1.57575659 -3.55456121 -0.95211461 0 0 Z " fill="#EFEFEF" transform="translate(67,32)"/>
<path d="M0 0 C0 3 0 3 -1.3125 4.38671875 C-2.875 5.59114583 -4.4375 6.79557292 -6 8 C-6.66 7.34 -7.32 6.68 -8 6 C-7.05125 5.38125 -6.1025 4.7625 -5.125 4.125 C-2.05554891 2.18029031 -2.05554891 2.18029031 0 0 Z " fill="#BABABA" transform="translate(43,74)"/>
</svg>
